<?xml version="1.0" encoding="UTF-8" standalone="no"?>
<!DOCTYPE svg PUBLIC "-//W3C//DTD SVG 1.1//EN" "http://www.w3.org/Graphics/SVG/1.1/DTD/svg11.dtd">
<svg xmlns="http://www.w3.org/2000/svg" version="1.1" viewBox="0.00 0.00 822.00 945.00">
<g stroke-width="2.00" fill="none" stroke-linecap="butt">
<path stroke="#cae1a1" vector-effect="non-scaling-stroke" d="
  M 341.73 39.76
  C 346.26 58.77 350.56 78.13 352.58 97.60
  A 0.45 0.45 0.0 0 0 353.22 97.96
  C 369.67 90.11 369.29 66.34 362.41 52.57
  Q 353.94 35.65 338.71 18.38
  Q 338.42 18.05 338.23 18.45
  Q 330.71 34.48 326.59 51.60
  C 323.28 65.36 323.94 75.26 330.70 87.03
  Q 336.37 96.92 347.07 98.97
  Q 347.79 99.11 347.66 98.39
  C 343.72 77.00 342.83 59.47 341.31 39.66
  Q 341.30 39.55 341.40 39.52
  Q 341.45 39.50 341.50 39.50
  Q 341.67 39.50 341.73 39.76"
/>
<path stroke="#cae1a1" vector-effect="non-scaling-stroke" d="
  M 468.28 39.98
  Q 467.15 69.31 462.41 98.25
  Q 462.32 98.78 462.86 98.74
  C 471.40 98.02 478.31 90.11 481.59 82.76
  Q 487.50 69.50 484.20 55.20
  Q 479.82 36.23 471.65 18.41
  Q 471.44 17.96 471.11 18.33
  Q 460.41 30.56 451.78 44.33
  C 443.77 57.11 440.41 69.51 445.03 84.24
  Q 447.49 92.08 454.85 97.46
  Q 457.15 99.15 457.44 96.31
  C 459.34 77.33 463.57 58.49 468.06 39.95
  A 0.11 0.11 0.0 0 1 468.28 39.98"
/>
<path stroke="#cae1a1" vector-effect="non-scaling-stroke" d="
  M 405.16 69.03
  C 407.00 92.78 408.81 116.37 408.02 140.23
  Q 408.01 140.76 408.53 140.70
  C 416.15 139.93 422.76 131.59 425.83 124.94
  Q 434.90 105.25 426.64 84.13
  Q 418.01 62.03 405.21 42.12
  A 0.32 0.32 0.0 0 0 404.67 42.12
  Q 392.40 61.09 383.92 82.18
  Q 375.59 102.88 382.80 122.16
  C 385.86 130.34 392.29 139.20 401.51 140.87
  A 0.42 0.42 0.0 0 0 402.00 140.43
  C 400.66 116.71 402.39 92.76 404.76 69.02
  A 0.20 0.20 0.0 0 1 405.16 69.03"
/>
<path stroke="#cae1a1" vector-effect="non-scaling-stroke" d="
  M 266.67 86.74
  A 0.15 0.15 0.0 0 1 266.94 86.62
  Q 281.26 111.57 292.70 137.95
  Q 292.93 138.48 293.35 138.09
  C 303.27 129.12 302.04 113.98 297.09 102.92
  Q 294.16 96.40 286.18 88.37
  Q 273.29 75.41 257.70 65.55
  Q 257.25 65.27 257.17 65.79
  Q 255.05 79.12 254.97 92.54
  C 254.86 110.17 256.58 123.05 269.50 134.74
  Q 277.23 141.73 287.63 140.62
  A 0.40 0.40 0.0 0 0 287.95 140.05
  Q 275.39 114.18 266.67 86.74"
/>
<path stroke="#cae1a1" vector-effect="non-scaling-stroke" d="
  M 543.18 86.67
  Q 534.30 114.03 522.02 140.03
  Q 521.75 140.59 522.37 140.66
  C 540.02 142.70 552.39 123.37 554.16 108.25
  C 555.80 94.27 554.62 79.72 552.76 65.76
  Q 552.69 65.27 552.27 65.54
  Q 534.17 77.06 521.37 90.36
  Q 506.40 105.91 509.75 126.70
  Q 510.82 133.33 516.79 138.20
  Q 517.19 138.53 517.39 138.05
  C 524.50 119.90 533.51 103.27 542.90 86.54
  A 0.16 0.15 69.3 0 1 543.18 86.67"
/>
<path stroke="#cae1a1" vector-effect="non-scaling-stroke" d="
  M 339.83 140.11
  C 344.30 159.15 348.33 178.50 350.26 197.99
  Q 350.31 198.52 350.79 198.29
  C 367.24 190.62 367.23 166.97 360.41 153.04
  Q 352.09 136.06 336.92 118.58
  Q 336.53 118.13 336.29 118.67
  C 327.56 138.72 316.03 164.59 327.74 186.22
  C 330.94 192.13 337.70 198.92 344.75 199.24
  Q 345.41 199.27 345.30 198.63
  Q 340.51 170.89 339.86 142.72
  Q 339.85 142.27 339.63 141.87
  Q 339.12 140.96 339.39 140.10
  Q 339.63 139.28 339.83 140.11"
/>
<path stroke="#cae1a1" vector-effect="non-scaling-stroke" d="
  M 470.06 142.24
  Q 469.08 170.68 464.64 198.79
  Q 464.56 199.32 465.09 199.26
  Q 471.16 198.51 474.97 194.96
  C 491.90 179.18 488.34 158.76 481.37 138.91
  Q 477.02 126.54 473.54 118.66
  Q 473.30 118.11 472.91 118.56
  Q 461.31 131.85 452.58 147.09
  C 445.52 159.42 442.94 169.80 446.63 183.04
  Q 449.55 193.52 459.13 198.48
  A 0.34 0.34 0.0 0 0 459.62 198.21
  C 461.38 179.38 465.27 160.82 469.51 142.17
  Q 470.16 139.31 470.06 142.24"
/>
<path stroke="#cae1a1" vector-effect="non-scaling-stroke" d="
  M 153.24 138.05
  Q 174.80 157.59 193.81 179.62
  Q 194.21 180.09 194.53 179.56
  C 201.56 168.03 195.04 152.85 186.73 144.05
  C 176.18 132.89 153.72 125.16 138.71 121.02
  Q 138.13 120.86 138.22 121.46
  Q 139.97 132.87 143.09 143.90
  C 148.29 162.30 153.35 175.29 171.04 183.43
  Q 180.52 187.79 190.05 183.55
  Q 190.62 183.30 190.18 182.86
  C 176.05 168.88 166.10 155.42 153.09 138.19
  Q 152.41 137.29 153.24 138.05"
/>
<path stroke="#cae1a1" vector-effect="non-scaling-stroke" d="
  M 656.69 138.22
  C 645.16 153.65 633.52 169.16 619.87 182.83
  Q 619.54 183.17 619.96 183.38
  C 632.70 189.95 648.98 179.86 656.14 169.67
  C 664.66 157.57 669.26 136.40 671.75 121.26
  Q 671.82 120.84 671.40 120.95
  Q 656.39 125.18 642.28 131.66
  C 627.69 138.37 618.69 145.23 613.81 160.03
  C 611.86 165.96 611.51 174.30 615.47 179.54
  Q 615.81 179.99 616.18 179.56
  Q 634.97 157.47 656.54 138.08
  Q 657.30 137.40 656.69 138.22"
/>
<path stroke="#cae1a1" vector-effect="non-scaling-stroke" d="
  M 228.36 155.67
  Q 246.78 178.54 261.50 203.04
  Q 262.22 204.24 263.02 203.10
  Q 268.36 195.53 267.41 186.81
  C 265.63 170.52 257.57 161.58 243.79 152.25
  Q 230.81 143.46 216.59 136.83
  A 0.35 0.35 0.0 0 0 216.10 137.15
  C 216.01 151.52 217.30 171.09 222.01 183.40
  C 226.80 195.91 242.08 211.93 257.23 206.96
  Q 257.76 206.79 257.45 206.33
  Q 241.17 181.97 228.27 155.73
  A 0.06 0.05 -77.8 0 1 228.36 155.67"
/>
<path stroke="#cae1a1" vector-effect="non-scaling-stroke" d="
  M 581.73 155.50
  Q 568.56 181.70 552.53 206.33
  Q 552.20 206.84 552.78 207.01
  C 563.95 210.30 575.29 202.52 581.82 194.19
  C 592.52 180.53 593.66 154.12 593.82 137.44
  Q 593.83 136.54 593.02 136.93
  Q 574.97 145.47 559.43 156.98
  C 546.31 166.69 535.61 188.95 547.24 203.44
  A 0.56 0.56 0.0 0 0 548.15 203.38
  Q 563.04 178.27 581.66 155.45
  A 0.04 0.04 0.0 0 1 581.73 155.50"
/>
<path stroke="#cae1a1" vector-effect="non-scaling-stroke" d="
  M 405.06 202.30
  Q 407.86 231.64 409.00 261.09
  C 409.48 273.34 409.53 285.45 408.83 297.80
  Q 408.80 298.36 409.35 298.24
  C 430.29 293.64 438.92 266.67 438.69 248.17
  C 438.50 233.71 432.10 218.40 425.60 204.67
  Q 416.46 185.40 405.36 167.74
  Q 404.93 167.06 404.50 167.73
  Q 387.54 194.10 376.45 222.83
  C 370.57 238.05 369.45 249.02 372.89 264.91
  C 375.92 278.98 385.33 294.57 400.52 298.41
  Q 401.10 298.56 401.07 297.97
  C 399.60 265.57 401.52 235.76 404.84 202.30
  Q 404.95 201.19 405.06 202.30"
/>
<path stroke="#cae1a1" vector-effect="non-scaling-stroke" d="
  M 305.43 229.01
  C 316.60 251.52 328.09 275.05 336.50 299.32
  Q 336.70 299.92 337.20 299.53
  C 351.99 288.21 350.72 265.25 343.56 249.96
  Q 340.31 243.02 333.25 234.81
  C 321.83 221.53 307.73 210.17 293.84 199.66
  A 0.47 0.47 0.0 0 0 293.09 199.95
  Q 289.20 220.36 288.34 241.00
  C 287.88 251.95 288.30 263.70 292.35 273.59
  C 298.80 289.32 311.57 302.51 329.30 302.85
  A 1.01 1.00 78.4 0 0 330.23 301.43
  C 319.93 278.32 311.86 253.57 304.73 229.28
  Q 303.53 225.18 305.43 229.01"
/>
<path stroke="#cae1a1" vector-effect="non-scaling-stroke" d="
  M 505.61 227.30
  C 498.31 252.72 489.92 277.65 479.47 301.95
  A 0.45 0.44 15.1 0 0 479.83 302.57
  C 489.05 303.60 497.34 299.51 503.95 293.19
  Q 521.10 276.77 521.44 252.99
  Q 521.83 226.24 516.71 199.91
  Q 516.60 199.35 516.14 199.69
  Q 500.15 211.50 485.60 225.04
  Q 485.23 225.39 484.76 225.58
  C 483.83 225.96 483.36 227.25 482.85 227.77
  Q 474.17 236.79 471.00 241.51
  C 460.01 257.91 455.30 285.79 472.53 299.61
  A 0.56 0.55 -61.0 0 0 473.40 299.36
  C 481.94 274.54 492.61 252.04 505.39 227.21
  Q 505.94 226.13 505.61 227.30"
/>
<path stroke="#cae1a1" vector-effect="non-scaling-stroke" d="
  M 204.67 233.95
  C 222.15 253.71 239.28 274.21 254.01 296.22
  A 0.59 0.58 -43.0 0 0 254.96 296.25
  C 264.42 283.98 260.88 266.65 253.79 254.11
  C 247.35 242.72 235.01 233.55 223.33 227.15
  Q 206.03 217.67 187.73 210.23
  A 0.35 0.34 9.2 0 0 187.25 210.57
  Q 188.64 232.88 193.60 254.72
  C 197.21 270.60 202.38 282.89 215.13 293.13
  C 223.47 299.84 238.18 305.96 248.68 300.87
  Q 249.15 300.64 248.82 300.23
  C 231.49 278.71 218.26 256.92 204.45 234.12
  A 0.14 0.14 0.0 0 1 204.67 233.95"
/>
<path stroke="#cae1a1" vector-effect="non-scaling-stroke" d="
  M 605.08 234.53
  C 592.19 256.12 577.49 279.99 561.25 300.17
  Q 560.90 300.61 561.39 300.88
  C 567.42 304.30 576.36 302.58 582.43 300.06
  C 604.63 290.83 612.63 272.54 617.17 250.43
  Q 621.21 230.67 622.63 210.61
  A 0.27 0.27 0.0 0 0 622.26 210.34
  Q 601.38 218.28 582.27 229.73
  C 564.76 240.23 553.72 251.31 549.88 272.02
  C 548.42 279.91 549.20 290.22 555.07 296.17
  Q 555.46 296.57 555.78 296.11
  Q 578.28 263.64 604.95 234.44
  A 0.08 0.08 0.0 0 1 605.08 234.53"
/>
<path stroke="#cae1a1" vector-effect="non-scaling-stroke" d="
  M 120.12 247.37
  Q 112.55 242.25 120.79 246.21
  C 136.53 253.77 152.59 261.17 167.22 270.50
  Q 168.68 271.43 168.84 269.71
  C 170.10 256.02 161.09 245.63 150.11 239.61
  C 136.25 232.03 111.77 232.07 96.84 233.05
  Q 96.23 233.09 96.52 233.63
  Q 105.46 250.59 117.49 265.52
  C 128.08 278.64 150.32 288.45 165.27 276.07
  A 0.66 0.66 0.0 0 0 165.14 274.97
  C 149.39 267.26 133.65 256.49 120.12 247.37"
/>
<path stroke="#cae1a1" vector-effect="non-scaling-stroke" d="
  M 693.57 244.34
  A 0.14 0.14 0.0 0 1 693.70 244.58
  C 677.99 255.43 661.77 266.49 644.67 274.97
  Q 644.15 275.23 644.53 275.68
  C 649.23 281.15 658.73 282.51 665.51 281.36
  C 678.86 279.12 686.89 272.51 695.53 261.38
  Q 705.63 248.37 713.33 233.63
  Q 713.61 233.09 713.00 233.05
  C 697.76 232.09 671.57 231.96 657.90 240.61
  C 648.63 246.47 637.85 258.47 641.48 270.43
  Q 641.66 270.99 642.16 270.69
  Q 666.92 255.69 693.57 244.34"
/>
<path stroke="#cae1a1" vector-effect="non-scaling-stroke" d="
  M 771.25 315.54
  C 753.06 322.08 734.81 329.05 715.89 333.20
  A 0.51 0.51 0.0 0 0 715.58 333.98
  C 723.41 345.51 740.81 346.59 752.55 342.23
  C 766.20 337.17 782.41 321.23 792.47 309.96
  Q 792.95 309.42 792.26 309.19
  Q 774.51 303.48 756.45 301.69
  Q 745.91 300.65 739.19 302.38
  C 727.90 305.27 713.76 314.71 713.85 328.12
  A 0.49 0.48 80.7 0 0 714.48 328.58
  C 732.66 322.72 748.47 318.71 771.17 315.22
  A 0.17 0.17 0.0 0 1 771.25 315.54"
/>
<path stroke="#cae1a1" vector-effect="non-scaling-stroke" d="
  M 39.03 315.31
  Q 67.66 319.94 95.36 328.45
  Q 95.92 328.62 95.93 328.03
  C 96.04 319.77 89.99 312.39 83.41 308.05
  Q 70.98 299.87 55.93 301.30
  Q 36.33 303.17 17.49 309.19
  Q 16.99 309.35 17.34 309.75
  Q 31.50 325.99 49.32 338.14
  C 61.02 346.13 86.39 348.57 94.27 333.72
  Q 94.51 333.26 94.01 333.15
  C 75.26 329.25 56.84 322.28 38.96 315.55
  Q 37.79 315.11 39.03 315.31"
/>
<path stroke="#cae1a1" vector-effect="non-scaling-stroke" d="
  M 142.07 323.29
  C 167.76 327.34 193.95 332.50 218.80 340.29
  A 0.60 0.60 0.0 0 0 219.58 339.68
  C 218.52 321.72 201.14 309.55 185.01 305.54
  Q 177.26 303.62 166.31 304.35
  C 148.42 305.54 130.37 310.00 113.26 315.22
  A 0.42 0.41 60.2 0 0 113.08 315.90
  C 125.61 329.34 139.81 342.94 155.23 353.01
  C 172.72 364.44 204.67 368.16 217.61 347.37
  Q 217.95 346.82 217.31 346.68
  C 191.93 341.41 165.75 332.46 142.01 323.53
  Q 140.89 323.11 142.07 323.29"
/>
<path stroke="#cae1a1" vector-effect="non-scaling-stroke" d="
  M 666.55 323.84
  Q 664.69 324.79 662.71 325.51
  C 639.64 333.86 616.88 341.26 592.65 346.66
  A 0.57 0.57 0.0 0 0 592.29 347.52
  Q 599.03 358.19 613.02 361.02
  C 630.68 364.60 645.93 359.89 660.17 349.13
  Q 679.87 334.25 696.66 315.93
  Q 696.98 315.59 696.53 315.44
  Q 670.71 307.02 651.25 305.01
  Q 637.55 303.59 633.33 304.05
  C 614.62 306.07 590.91 318.77 590.29 339.79
  A 0.41 0.41 0.0 0 0 590.81 340.20
  Q 628.08 329.38 666.48 323.60
  Q 667.27 323.48 666.55 323.84"
/>
<path stroke="#bfb4ab" vector-effect="non-scaling-stroke" d="
  M 421.40 677.66
  Q 427.07 677.91 432.75 677.97
  Q 470.51 678.32 508.15 680.78
  Q 508.65 680.81 508.36 680.40
  C 481.39 642.53 452.24 614.75 416.40 580.10
  Q 394.12 558.57 384.94 547.56
  Q 375.59 536.34 372.80 532.19
  Q 346.15 492.62 351.49 444.66
  C 356.04 403.81 375.59 358.35 406.70 330.96
  Q 407.57 330.19 408.62 329.70
  Q 408.68 329.67 408.71 329.61
  Q 408.76 329.49 408.81 329.37
  Q 408.94 329.08 408.66 329.22
  C 392.50 337.45 378.02 348.10 368.43 361.93
  Q 363.12 369.60 355.08 383.94
  C 349.30 394.25 340.87 409.44 327.27 409.27
  C 313.78 409.11 306.14 392.67 300.79 382.37
  C 288.17 358.07 271.01 332.94 244.48 322.66
  Q 244.01 322.48 244.32 322.88
  Q 279.55 368.98 291.31 425.93
  C 293.79 437.92 295.96 451.25 298.60 461.93
  C 310.09 508.50 331.75 557.04 358.82 595.69
  Q 382.68 629.77 420.61 677.26
  Q 420.91 677.64 421.40 677.66"
/>
<path stroke="#bfb4ab" vector-effect="non-scaling-stroke" d="
  M 420.14 566.87
  L 457.39 603.12
  Q 457.74 603.46 458.01 603.06
  Q 465.19 592.21 472.15 581.22
  C 494.75 545.55 512.02 506.29 522.37 465.35
  C 525.12 454.44 527.38 441.60 529.71 429.70
  Q 541.26 370.70 577.41 322.86
  Q 577.70 322.47 577.25 322.65
  C 558.25 330.14 543.65 345.47 532.89 362.41
  Q 522.77 378.34 519.53 385.02
  C 514.00 396.39 506.63 409.30 494.08 409.23
  C 484.02 409.17 476.61 400.55 471.55 391.95
  C 462.45 376.46 453.77 359.60 440.68 347.83
  Q 432.03 340.04 422.93 334.14
  A 1.57 1.56 -6.3 0 0 420.98 336.57
  C 450.20 365.12 466.67 408.69 470.51 448.59
  C 473.12 475.78 467.32 500.99 453.71 524.76
  C 445.27 539.52 432.03 553.47 420.13 565.72
  Q 419.56 566.30 420.14 566.87"
/>
<path stroke="#bfb4ab" vector-effect="non-scaling-stroke" d="
  M 346.52 375.80
  A 17.49 17.49 0.0 0 0 329.03 358.31
  A 17.49 17.49 0.0 0 0 311.54 375.80
  A 17.49 17.49 0.0 0 0 329.03 393.29
  A 17.49 17.49 0.0 0 0 346.52 375.80"
/>
<path stroke="#bfb4ab" vector-effect="non-scaling-stroke" d="
  M 510.26 375.79
  A 17.48 17.48 0.0 0 0 492.78 358.31
  A 17.48 17.48 0.0 0 0 475.30 375.79
  A 17.48 17.48 0.0 0 0 492.78 393.27
  A 17.48 17.48 0.0 0 0 510.26 375.79"
/>
<path stroke="#cae1a1" vector-effect="non-scaling-stroke" d="
  M 95.99 391.21
  A 0.25 0.25 0.0 0 1 95.95 390.71
  C 114.63 387.37 133.23 383.97 152.21 382.75
  Q 152.70 382.72 152.57 382.25
  C 149.55 370.85 132.83 366.71 122.76 367.10
  C 105.73 367.75 85.16 383.05 72.08 393.16
  A 0.22 0.22 0.0 0 0 72.12 393.53
  C 85.82 400.39 106.13 409.43 120.89 409.37
  C 133.12 409.31 150.98 402.36 153.26 388.24
  A 0.44 0.44 0.0 0 0 152.76 387.73
  Q 124.51 391.55 95.99 391.21"
/>
<path stroke="#cae1a1" vector-effect="non-scaling-stroke" d="
  M 714.83 390.88
  A 0.17 0.17 0.0 0 1 714.80 391.21
  Q 685.87 391.61 657.21 387.73
  Q 656.62 387.65 656.70 388.24
  C 658.49 402.32 676.70 409.18 688.78 409.36
  C 702.36 409.57 720.66 401.69 732.93 395.79
  C 733.91 395.31 736.03 394.65 737.38 393.75
  Q 737.91 393.39 737.41 393.00
  C 724.50 382.96 703.41 367.23 685.92 367.07
  C 676.39 366.98 660.27 370.87 657.29 382.12
  Q 657.15 382.67 657.71 382.72
  C 676.99 384.35 695.75 387.47 714.83 390.88"
/>
<path stroke="#cae1a1" vector-effect="non-scaling-stroke" d="
  M 162.73 429.78
  C 188.68 424.54 213.80 418.98 240.27 416.23
  Q 240.85 416.17 240.61 415.64
  C 232.30 397.10 206.98 393.84 189.90 398.40
  Q 182.55 400.37 171.72 406.54
  Q 151.26 418.18 133.33 433.65
  Q 132.93 433.99 133.41 434.22
  Q 147.85 441.04 162.98 446.00
  C 176.00 450.27 187.68 453.82 199.72 453.47
  C 216.01 452.99 239.42 442.18 241.63 423.59
  A 0.59 0.59 0.0 0 0 240.95 422.94
  C 214.95 427.50 188.89 428.84 162.66 430.14
  Q 162.54 430.15 162.51 430.06
  Q 162.49 430.01 162.50 429.96
  Q 162.53 429.82 162.73 429.78"
/>
<path stroke="#cae1a1" vector-effect="non-scaling-stroke" d="
  M 646.95 429.93
  Q 613.63 429.15 580.69 424.81
  Q 574.59 424.00 568.73 422.90
  A 0.42 0.42 0.0 0 0 568.23 423.36
  C 570.14 439.89 588.30 450.23 603.37 452.75
  C 611.32 454.08 621.20 453.28 629.00 451.26
  Q 653.63 444.89 676.60 434.18
  A 0.24 0.23 -36.4 0 0 676.66 433.79
  Q 659.10 418.77 639.20 407.16
  Q 628.41 400.87 621.13 398.74
  C 603.64 393.63 577.97 396.87 569.20 415.36
  A 0.68 0.68 0.0 0 0 569.76 416.33
  C 595.29 418.38 615.70 422.96 646.96 429.85
  A 0.04 0.04 0.0 0 1 646.95 429.93"
/>
<path stroke="#bfb4ab" vector-effect="non-scaling-stroke" d="
  M 425.40 469.37
  C 419.41 475.14 409.93 477.87 402.31 473.68
  C 381.54 462.28 375.86 425.84 376.55 404.13
  Q 376.59 402.70 376.01 404.01
  C 371.42 414.32 367.76 426.35 365.75 436.88
  C 358.14 476.97 384.89 518.96 410.53 546.86
  Q 410.84 547.20 411.16 546.86
  C 432.46 523.46 454.56 490.63 457.26 458.24
  C 458.74 440.35 453.02 420.00 445.74 403.72
  Q 445.54 403.26 445.54 403.76
  C 445.83 425.34 441.60 453.79 425.40 469.37"
/>
<path stroke="#bfb4ab" vector-effect="non-scaling-stroke" d="
  M 424.97 450.12
  A 14.19 14.19 0.0 0 0 410.78 435.93
  A 14.19 14.19 0.0 0 0 396.59 450.12
  A 14.19 14.19 0.0 0 0 410.78 464.31
  A 14.19 14.19 0.0 0 0 424.97 450.12"
/>
<path stroke="#bfb4ab" vector-effect="non-scaling-stroke" d="
  M 361.33 623.80
  Q 334.95 650.17 313.30 680.35
  A 0.27 0.27 0.0 0 0 313.54 680.78
  Q 356.62 678.07 399.58 677.80
  C 401.41 677.79 402.33 676.93 402.92 675.35
  A 0.80 0.78 -54.0 0 0 402.81 674.60
  L 362.79 622.72
  Q 362.50 622.35 362.16 622.68
  C 361.78 623.04 361.58 623.54 361.33 623.80"
/>
<path stroke="#cae1a1" vector-effect="non-scaling-stroke" d="
  M 160.08 756.30
  C 330.10 736.48 499.52 736.94 663.22 756.55
  Q 664.12 756.66 663.36 756.17
  Q 662.50 755.63 661.65 755.04
  C 644.38 743.24 625.72 733.47 606.12 726.18
  C 535.91 700.07 460.19 692.53 386.99 694.67
  C 328.96 696.36 270.62 705.87 216.05 726.03
  Q 186.08 737.09 158.44 756.47
  Q 157.72 756.98 158.57 756.71
  C 159.16 756.53 159.53 756.36 160.08 756.30"
/>
<path stroke="#cae1a1" vector-effect="non-scaling-stroke" d="
  M 199.88 847.92
  C 191.44 842.52 176.38 845.83 166.45 847.53
  A 1.09 1.08 -3.2 0 1 165.18 846.40
  C 165.93 833.81 165.88 821.02 167.05 808.63
  C 167.34 805.62 168.49 803.17 171.75 803.20
  C 180.33 803.29 211.88 804.47 209.68 790.20
  C 208.81 784.57 199.27 782.17 194.50 782.21
  Q 180.76 782.30 168.61 784.66
  C 167.30 784.91 165.71 784.75 164.37 784.74
  Q 163.84 784.74 163.50 784.34
  C 157.91 777.75 144.24 777.97 138.49 784.66
  A 1.27 1.25 66.1 0 0 138.19 785.45
  Q 137.54 835.58 135.94 885.69
  Q 135.49 899.93 135.99 914.17
  C 136.08 916.67 136.78 920.68 138.00 922.73
  C 143.99 932.79 156.25 928.11 158.54 918.50
  Q 162.78 900.74 163.22 877.58
  C 163.28 874.69 163.77 872.08 164.39 869.39
  A 2.90 2.87 -88.1 0 1 166.71 867.20
  L 183.00 864.42
  Q 183.50 864.34 183.98 864.50
  Q 185.33 864.95 186.42 863.91
  A 1.49 1.45 -69.7 0 1 187.24 863.52
  C 191.70 863.01 198.83 862.58 201.85 859.31
  C 205.22 855.65 203.98 850.55 199.88 847.92"
/>
<path stroke="#cae1a1" vector-effect="non-scaling-stroke" d="
  M 651.72 871.29
  C 653.52 847.71 653.71 823.82 653.52 800.19
  Q 653.45 791.51 651.84 788.05
  C 649.15 782.28 642.56 779.27 636.04 780.42
  C 631.82 781.16 627.10 781.78 626.34 787.02
  C 625.67 791.59 625.28 795.87 625.28 800.76
  Q 625.30 823.85 624.24 846.93
  C 623.16 870.63 623.40 894.42 623.52 918.13
  C 623.60 932.97 642.80 933.43 645.98 919.61
  Q 646.09 919.11 646.51 918.80
  C 649.31 916.76 660.51 917.82 664.42 917.66
  C 675.95 917.19 691.32 912.93 696.63 901.61
  C 698.38 897.87 698.21 890.78 697.07 886.88
  C 694.02 876.49 680.08 871.31 670.24 871.07
  Q 660.19 870.81 652.14 871.69
  Q 651.69 871.74 651.72 871.29"
/>
<path stroke="#cae1a1" vector-effect="non-scaling-stroke" d="
  M 471.83 913.48
  C 471.97 926.06 484.66 926.32 493.75 926.64
  C 504.43 927.02 544.49 925.85 550.69 915.95
  Q 554.87 909.29 548.13 904.59
  Q 544.16 901.81 541.44 901.31
  C 528.49 898.90 514.45 900.75 500.48 900.79
  A 3.11 3.11 0.0 0 1 497.38 897.32
  C 497.98 892.29 498.64 886.85 498.96 881.85
  Q 501.61 839.52 501.25 797.10
  C 501.11 780.87 492.99 778.38 478.55 781.17
  C 474.64 781.92 474.55 787.69 474.48 790.25
  C 473.28 831.26 471.39 872.46 471.83 913.48"
/>
<path stroke="#cae1a1" vector-effect="non-scaling-stroke" d="
  M 447.56 836.06
  C 447.34 829.81 442.88 826.94 437.17 826.72
  C 433.22 826.57 428.61 828.23 427.31 832.06
  C 426.35 834.88 425.53 840.45 428.99 842.55
  C 434.93 846.16 447.92 846.45 447.56 836.06"
/>
<path stroke="#cae1a1" vector-effect="non-scaling-stroke" d="
  M 581.19 842.56
  Q 587.25 846.10 593.53 844.14
  C 596.46 843.22 598.57 842.42 599.25 839.34
  C 602.58 824.14 578.83 821.90 578.59 836.28
  C 578.54 839.44 578.37 840.92 581.19 842.56"
/>
<path stroke="#cae1a1" vector-effect="non-scaling-stroke" d="
  M 366.32 867.07
  Q 367.08 881.80 368.02 896.99
  C 368.59 906.12 369.87 916.80 379.44 920.55
  C 385.47 922.91 395.12 923.17 399.21 917.39
  C 401.42 914.27 399.71 909.65 396.04 907.37
  A 1.01 0.99 14.4 0 1 395.58 906.61
  C 395.16 902.32 394.24 898.05 394.07 893.80
  Q 393.38 875.97 389.79 857.74
  C 388.84 852.91 387.48 846.53 383.38 843.49
  C 372.75 835.60 359.23 841.22 351.16 849.92
  A 0.76 0.75 -30.4 0 1 349.87 849.59
  C 348.52 844.08 346.94 839.20 340.49 837.47
  C 333.64 835.64 326.60 839.19 320.77 843.06
  Q 320.24 843.41 320.14 842.79
  C 318.26 831.26 298.65 832.44 297.83 842.07
  C 296.29 860.15 296.96 878.54 297.02 896.69
  C 297.03 899.00 296.37 901.46 296.52 904.03
  Q 296.54 904.51 296.32 904.94
  C 294.12 909.11 292.65 913.93 297.72 916.50
  Q 308.66 922.07 317.43 915.37
  C 323.78 910.52 323.23 896.65 323.12 889.56
  C 322.97 879.68 321.92 868.79 320.46 858.70
  Q 320.38 858.14 320.80 857.76
  L 327.65 851.49
  A 1.08 1.07 63.7 0 1 329.43 852.10
  Q 331.52 863.75 333.64 874.92
  C 334.58 879.88 335.88 883.72 341.06 884.41
  C 356.06 886.42 359.72 878.30 364.78 866.79
  A 0.80 0.80 0.0 0 1 366.32 867.07"
/>
<path stroke="#cae1a1" vector-effect="non-scaling-stroke" d="
  M 245.37 882.57
  C 240.95 882.35 236.02 881.39 232.40 881.46
  C 222.93 881.64 207.56 887.81 205.55 898.60
  C 201.50 920.42 222.92 928.20 240.25 927.59
  Q 241.12 927.56 242.82 928.43
  A 1.24 1.23 -87.3 0 1 243.39 929.06
  C 246.38 936.55 252.36 937.00 258.95 939.39
  Q 259.37 939.54 259.82 939.44
  C 265.13 938.19 272.90 937.65 273.02 929.81
  A 1.06 1.06 0.0 0 0 272.79 929.15
  L 269.90 925.61
  A 0.89 0.86 -65.7 0 1 269.70 925.05
  C 269.83 908.29 271.81 891.22 272.63 874.44
  Q 272.82 870.54 271.85 863.04
  C 269.78 847.16 257.17 837.74 241.44 839.97
  C 236.13 840.72 215.80 843.76 216.25 849.98
  Q 216.29 850.49 216.71 850.79
  C 222.51 854.89 230.20 851.02 236.84 851.94
  Q 239.75 852.34 242.45 852.58
  A 3.32 3.32 0.0 0 1 245.31 854.91
  C 246.19 857.77 247.24 860.74 247.40 863.75
  Q 247.91 872.96 246.06 882.04
  Q 245.94 882.60 245.37 882.57"
/>
<path stroke="#cae1a1" vector-effect="non-scaling-stroke" d="
  M 450.56 903.56
  C 450.73 887.90 451.20 876.16 448.32 862.86
  Q 447.19 857.65 445.52 855.72
  C 441.14 850.67 432.36 852.65 430.24 859.19
  Q 429.04 862.87 428.71 865.24
  Q 425.63 887.37 425.20 900.24
  Q 424.85 910.74 421.11 919.17
  C 417.16 928.12 428.77 929.28 434.20 928.69
  C 448.02 927.19 450.44 915.26 450.56 903.56"
/>
<path stroke="#cae1a1" vector-effect="non-scaling-stroke" d="
  M 573.30 918.73
  C 570.07 925.60 576.12 928.72 581.88 928.92
  C 595.03 929.38 602.06 921.02 602.47 908.25
  C 602.86 896.24 603.40 881.49 601.38 868.64
  C 600.27 861.52 599.37 852.99 591.23 852.95
  C 583.41 852.92 581.37 859.35 580.58 865.80
  C 579.27 876.47 578.10 886.35 577.48 897.79
  C 577.07 905.45 576.42 912.06 573.30 918.73"
/>
<path stroke="#cae1a1" vector-effect="non-scaling-stroke" d="
  M 649.66 906.95
  C 686.05 911.88 677.16 871.00 651.41 879.67
  A 1.18 1.17 -7.4 0 0 650.60 880.71
  L 648.78 905.87
  A 1.02 1.01 6.0 0 0 649.66 906.95"
/>
<path stroke="#cae1a1" vector-effect="non-scaling-stroke" d="
  M 243.30 914.32
  L 245.46 892.27
  A 1.66 1.66 0.0 0 0 243.97 890.46
  L 240.11 890.08
  A 12.58 12.44 -84.4 0 0 226.50 901.38
  L 226.47 901.70
  A 12.58 12.44 -84.4 0 0 237.62 915.44
  L 241.48 915.81
  A 1.66 1.66 0.0 0 0 243.30 914.32"
/>
</g>
<path fill="#ffffff" d="
  M 0.00 0.00
  L 822.00 0.00
  L 822.00 945.00
  L 0.00 945.00
  L 0.00 0.00
  Z
  M 341.73 39.76
  C 346.26 58.77 350.56 78.13 352.58 97.60
  A 0.45 0.45 0.0 0 0 353.22 97.96
  C 369.67 90.11 369.29 66.34 362.41 52.57
  Q 353.94 35.65 338.71 18.38
  Q 338.42 18.05 338.23 18.45
  Q 330.71 34.48 326.59 51.60
  C 323.28 65.36 323.94 75.26 330.70 87.03
  Q 336.37 96.92 347.07 98.97
  Q 347.79 99.11 347.66 98.39
  C 343.72 77.00 342.83 59.47 341.31 39.66
  Q 341.30 39.55 341.40 39.52
  Q 341.45 39.50 341.50 39.50
  Q 341.67 39.50 341.73 39.76
  Z
  M 468.28 39.98
  Q 467.15 69.31 462.41 98.25
  Q 462.32 98.78 462.86 98.74
  C 471.40 98.02 478.31 90.11 481.59 82.76
  Q 487.50 69.50 484.20 55.20
  Q 479.82 36.23 471.65 18.41
  Q 471.44 17.96 471.11 18.33
  Q 460.41 30.56 451.78 44.33
  C 443.77 57.11 440.41 69.51 445.03 84.24
  Q 447.49 92.08 454.85 97.46
  Q 457.15 99.15 457.44 96.31
  C 459.34 77.33 463.57 58.49 468.06 39.95
  A 0.11 0.11 0.0 0 1 468.28 39.98
  Z
  M 405.16 69.03
  C 407.00 92.78 408.81 116.37 408.02 140.23
  Q 408.01 140.76 408.53 140.70
  C 416.15 139.93 422.76 131.59 425.83 124.94
  Q 434.90 105.25 426.64 84.13
  Q 418.01 62.03 405.21 42.12
  A 0.32 0.32 0.0 0 0 404.67 42.12
  Q 392.40 61.09 383.92 82.18
  Q 375.59 102.88 382.80 122.16
  C 385.86 130.34 392.29 139.20 401.51 140.87
  A 0.42 0.42 0.0 0 0 402.00 140.43
  C 400.66 116.71 402.39 92.76 404.76 69.02
  A 0.20 0.20 0.0 0 1 405.16 69.03
  Z
  M 266.67 86.74
  A 0.15 0.15 0.0 0 1 266.94 86.62
  Q 281.26 111.57 292.70 137.95
  Q 292.93 138.48 293.35 138.09
  C 303.27 129.12 302.04 113.98 297.09 102.92
  Q 294.16 96.40 286.18 88.37
  Q 273.29 75.41 257.70 65.55
  Q 257.25 65.27 257.17 65.79
  Q 255.05 79.12 254.97 92.54
  C 254.86 110.17 256.58 123.05 269.50 134.74
  Q 277.23 141.73 287.63 140.62
  A 0.40 0.40 0.0 0 0 287.95 140.05
  Q 275.39 114.18 266.67 86.74
  Z
  M 543.18 86.67
  Q 534.30 114.03 522.02 140.03
  Q 521.75 140.59 522.37 140.66
  C 540.02 142.70 552.39 123.37 554.16 108.25
  C 555.80 94.27 554.62 79.72 552.76 65.76
  Q 552.69 65.27 552.27 65.54
  Q 534.17 77.06 521.37 90.36
  Q 506.40 105.91 509.75 126.70
  Q 510.82 133.33 516.79 138.20
  Q 517.19 138.53 517.39 138.05
  C 524.50 119.90 533.51 103.27 542.90 86.54
  A 0.16 0.15 69.3 0 1 543.18 86.67
  Z
  M 339.83 140.11
  C 344.30 159.15 348.33 178.50 350.26 197.99
  Q 350.31 198.52 350.79 198.29
  C 367.24 190.62 367.23 166.97 360.41 153.04
  Q 352.09 136.06 336.92 118.58
  Q 336.53 118.13 336.29 118.67
  C 327.56 138.72 316.03 164.59 327.74 186.22
  C 330.94 192.13 337.70 198.92 344.75 199.24
  Q 345.41 199.27 345.30 198.63
  Q 340.51 170.89 339.86 142.72
  Q 339.85 142.27 339.63 141.87
  Q 339.12 140.96 339.39 140.10
  Q 339.63 139.28 339.83 140.11
  Z
  M 470.06 142.24
  Q 469.08 170.68 464.64 198.79
  Q 464.56 199.32 465.09 199.26
  Q 471.16 198.51 474.97 194.96
  C 491.90 179.18 488.34 158.76 481.37 138.91
  Q 477.02 126.54 473.54 118.66
  Q 473.30 118.11 472.91 118.56
  Q 461.31 131.85 452.58 147.09
  C 445.52 159.42 442.94 169.80 446.63 183.04
  Q 449.55 193.52 459.13 198.48
  A 0.34 0.34 0.0 0 0 459.62 198.21
  C 461.38 179.38 465.27 160.82 469.51 142.17
  Q 470.16 139.31 470.06 142.24
  Z
  M 153.24 138.05
  Q 174.80 157.59 193.81 179.62
  Q 194.21 180.09 194.53 179.56
  C 201.56 168.03 195.04 152.85 186.73 144.05
  C 176.18 132.89 153.72 125.16 138.71 121.02
  Q 138.13 120.86 138.22 121.46
  Q 139.97 132.87 143.09 143.90
  C 148.29 162.30 153.35 175.29 171.04 183.43
  Q 180.52 187.79 190.05 183.55
  Q 190.62 183.30 190.18 182.86
  C 176.05 168.88 166.10 155.42 153.09 138.19
  Q 152.41 137.29 153.24 138.05
  Z
  M 656.69 138.22
  C 645.16 153.65 633.52 169.16 619.87 182.83
  Q 619.54 183.17 619.96 183.38
  C 632.70 189.95 648.98 179.86 656.14 169.67
  C 664.66 157.57 669.26 136.40 671.75 121.26
  Q 671.82 120.84 671.40 120.95
  Q 656.39 125.18 642.28 131.66
  C 627.69 138.37 618.69 145.23 613.81 160.03
  C 611.86 165.96 611.51 174.30 615.47 179.54
  Q 615.81 179.99 616.18 179.56
  Q 634.97 157.47 656.54 138.08
  Q 657.30 137.40 656.69 138.22
  Z
  M 228.36 155.67
  Q 246.78 178.54 261.50 203.04
  Q 262.22 204.24 263.02 203.10
  Q 268.36 195.53 267.41 186.81
  C 265.63 170.52 257.57 161.58 243.79 152.25
  Q 230.81 143.46 216.59 136.83
  A 0.35 0.35 0.0 0 0 216.10 137.15
  C 216.01 151.52 217.30 171.09 222.01 183.40
  C 226.80 195.91 242.08 211.93 257.23 206.96
  Q 257.76 206.79 257.45 206.33
  Q 241.17 181.97 228.27 155.73
  A 0.06 0.05 -77.8 0 1 228.36 155.67
  Z
  M 581.73 155.50
  Q 568.56 181.70 552.53 206.33
  Q 552.20 206.84 552.78 207.01
  C 563.95 210.30 575.29 202.52 581.82 194.19
  C 592.52 180.53 593.66 154.12 593.82 137.44
  Q 593.83 136.54 593.02 136.93
  Q 574.97 145.47 559.43 156.98
  C 546.31 166.69 535.61 188.95 547.24 203.44
  A 0.56 0.56 0.0 0 0 548.15 203.38
  Q 563.04 178.27 581.66 155.45
  A 0.04 0.04 0.0 0 1 581.73 155.50
  Z
  M 405.06 202.30
  Q 407.86 231.64 409.00 261.09
  C 409.48 273.34 409.53 285.45 408.83 297.80
  Q 408.80 298.36 409.35 298.24
  C 430.29 293.64 438.92 266.67 438.69 248.17
  C 438.50 233.71 432.10 218.40 425.60 204.67
  Q 416.46 185.40 405.36 167.74
  Q 404.93 167.06 404.50 167.73
  Q 387.54 194.10 376.45 222.83
  C 370.57 238.05 369.45 249.02 372.89 264.91
  C 375.92 278.98 385.33 294.57 400.52 298.41
  Q 401.10 298.56 401.07 297.97
  C 399.60 265.57 401.52 235.76 404.84 202.30
  Q 404.95 201.19 405.06 202.30
  Z
  M 305.43 229.01
  C 316.60 251.52 328.09 275.05 336.50 299.32
  Q 336.70 299.92 337.20 299.53
  C 351.99 288.21 350.72 265.25 343.56 249.96
  Q 340.31 243.02 333.25 234.81
  C 321.83 221.53 307.73 210.17 293.84 199.66
  A 0.47 0.47 0.0 0 0 293.09 199.95
  Q 289.20 220.36 288.34 241.00
  C 287.88 251.95 288.30 263.70 292.35 273.59
  C 298.80 289.32 311.57 302.51 329.30 302.85
  A 1.01 1.00 78.4 0 0 330.23 301.43
  C 319.93 278.32 311.86 253.57 304.73 229.28
  Q 303.53 225.18 305.43 229.01
  Z
  M 505.61 227.30
  C 498.31 252.72 489.92 277.65 479.47 301.95
  A 0.45 0.44 15.1 0 0 479.83 302.57
  C 489.05 303.60 497.34 299.51 503.95 293.19
  Q 521.10 276.77 521.44 252.99
  Q 521.83 226.24 516.71 199.91
  Q 516.60 199.35 516.14 199.69
  Q 500.15 211.50 485.60 225.04
  Q 485.23 225.39 484.76 225.58
  C 483.83 225.96 483.36 227.25 482.85 227.77
  Q 474.17 236.79 471.00 241.51
  C 460.01 257.91 455.30 285.79 472.53 299.61
  A 0.56 0.55 -61.0 0 0 473.40 299.36
  C 481.94 274.54 492.61 252.04 505.39 227.21
  Q 505.94 226.13 505.61 227.30
  Z
  M 204.67 233.95
  C 222.15 253.71 239.28 274.21 254.01 296.22
  A 0.59 0.58 -43.0 0 0 254.96 296.25
  C 264.42 283.98 260.88 266.65 253.79 254.11
  C 247.35 242.72 235.01 233.55 223.33 227.15
  Q 206.03 217.67 187.73 210.23
  A 0.35 0.34 9.2 0 0 187.25 210.57
  Q 188.64 232.88 193.60 254.72
  C 197.21 270.60 202.38 282.89 215.13 293.13
  C 223.47 299.84 238.18 305.96 248.68 300.87
  Q 249.15 300.64 248.82 300.23
  C 231.49 278.71 218.26 256.92 204.45 234.12
  A 0.14 0.14 0.0 0 1 204.67 233.95
  Z
  M 605.08 234.53
  C 592.19 256.12 577.49 279.99 561.25 300.17
  Q 560.90 300.61 561.39 300.88
  C 567.42 304.30 576.36 302.58 582.43 300.06
  C 604.63 290.83 612.63 272.54 617.17 250.43
  Q 621.21 230.67 622.63 210.61
  A 0.27 0.27 0.0 0 0 622.26 210.34
  Q 601.38 218.28 582.27 229.73
  C 564.76 240.23 553.72 251.31 549.88 272.02
  C 548.42 279.91 549.20 290.22 555.07 296.17
  Q 555.46 296.57 555.78 296.11
  Q 578.28 263.64 604.95 234.44
  A 0.08 0.08 0.0 0 1 605.08 234.53
  Z
  M 120.12 247.37
  Q 112.55 242.25 120.79 246.21
  C 136.53 253.77 152.59 261.17 167.22 270.50
  Q 168.68 271.43 168.84 269.71
  C 170.10 256.02 161.09 245.63 150.11 239.61
  C 136.25 232.03 111.77 232.07 96.84 233.05
  Q 96.23 233.09 96.52 233.63
  Q 105.46 250.59 117.49 265.52
  C 128.08 278.64 150.32 288.45 165.27 276.07
  A 0.66 0.66 0.0 0 0 165.14 274.97
  C 149.39 267.26 133.65 256.49 120.12 247.37
  Z
  M 693.57 244.34
  A 0.14 0.14 0.0 0 1 693.70 244.58
  C 677.99 255.43 661.77 266.49 644.67 274.97
  Q 644.15 275.23 644.53 275.68
  C 649.23 281.15 658.73 282.51 665.51 281.36
  C 678.86 279.12 686.89 272.51 695.53 261.38
  Q 705.63 248.37 713.33 233.63
  Q 713.61 233.09 713.00 233.05
  C 697.76 232.09 671.57 231.96 657.90 240.61
  C 648.63 246.47 637.85 258.47 641.48 270.43
  Q 641.66 270.99 642.16 270.69
  Q 666.92 255.69 693.57 244.34
  Z
  M 771.25 315.54
  C 753.06 322.08 734.81 329.05 715.89 333.20
  A 0.51 0.51 0.0 0 0 715.58 333.98
  C 723.41 345.51 740.81 346.59 752.55 342.23
  C 766.20 337.17 782.41 321.23 792.47 309.96
  Q 792.95 309.42 792.26 309.19
  Q 774.51 303.48 756.45 301.69
  Q 745.91 300.65 739.19 302.38
  C 727.90 305.27 713.76 314.71 713.85 328.12
  A 0.49 0.48 80.7 0 0 714.48 328.58
  C 732.66 322.72 748.47 318.71 771.17 315.22
  A 0.17 0.17 0.0 0 1 771.25 315.54
  Z
  M 39.03 315.31
  Q 67.66 319.94 95.36 328.45
  Q 95.92 328.62 95.93 328.03
  C 96.04 319.77 89.99 312.39 83.41 308.05
  Q 70.98 299.87 55.93 301.30
  Q 36.33 303.17 17.49 309.19
  Q 16.99 309.35 17.34 309.75
  Q 31.50 325.99 49.32 338.14
  C 61.02 346.13 86.39 348.57 94.27 333.72
  Q 94.51 333.26 94.01 333.15
  C 75.26 329.25 56.84 322.28 38.96 315.55
  Q 37.79 315.11 39.03 315.31
  Z
  M 142.07 323.29
  C 167.76 327.34 193.95 332.50 218.80 340.29
  A 0.60 0.60 0.0 0 0 219.58 339.68
  C 218.52 321.72 201.14 309.55 185.01 305.54
  Q 177.26 303.62 166.31 304.35
  C 148.42 305.54 130.37 310.00 113.26 315.22
  A 0.42 0.41 60.2 0 0 113.08 315.90
  C 125.61 329.34 139.81 342.94 155.23 353.01
  C 172.72 364.44 204.67 368.16 217.61 347.37
  Q 217.95 346.82 217.31 346.68
  C 191.93 341.41 165.75 332.46 142.01 323.53
  Q 140.89 323.11 142.07 323.29
  Z
  M 666.55 323.84
  Q 664.69 324.79 662.71 325.51
  C 639.64 333.86 616.88 341.26 592.65 346.66
  A 0.57 0.57 0.0 0 0 592.29 347.52
  Q 599.03 358.19 613.02 361.02
  C 630.68 364.60 645.93 359.89 660.17 349.13
  Q 679.87 334.25 696.66 315.93
  Q 696.98 315.59 696.53 315.44
  Q 670.71 307.02 651.25 305.01
  Q 637.55 303.59 633.33 304.05
  C 614.62 306.07 590.91 318.77 590.29 339.79
  A 0.41 0.41 0.0 0 0 590.81 340.20
  Q 628.08 329.38 666.48 323.60
  Q 667.27 323.48 666.55 323.84
  Z
  M 421.40 677.66
  Q 427.07 677.91 432.75 677.97
  Q 470.51 678.32 508.15 680.78
  Q 508.65 680.81 508.36 680.40
  C 481.39 642.53 452.24 614.75 416.40 580.10
  Q 394.12 558.57 384.94 547.56
  Q 375.59 536.34 372.80 532.19
  Q 346.15 492.62 351.49 444.66
  C 356.04 403.81 375.59 358.35 406.70 330.96
  Q 407.57 330.19 408.62 329.70
  Q 408.68 329.67 408.71 329.61
  Q 408.76 329.49 408.81 329.37
  Q 408.94 329.08 408.66 329.22
  C 392.50 337.45 378.02 348.10 368.43 361.93
  Q 363.12 369.60 355.08 383.94
  C 349.30 394.25 340.87 409.44 327.27 409.27
  C 313.78 409.11 306.14 392.67 300.79 382.37
  C 288.17 358.07 271.01 332.94 244.48 322.66
  Q 244.01 322.48 244.32 322.88
  Q 279.55 368.98 291.31 425.93
  C 293.79 437.92 295.96 451.25 298.60 461.93
  C 310.09 508.50 331.75 557.04 358.82 595.69
  Q 382.68 629.77 420.61 677.26
  Q 420.91 677.64 421.40 677.66
  Z
  M 420.14 566.87
  L 457.39 603.12
  Q 457.74 603.46 458.01 603.06
  Q 465.19 592.21 472.15 581.22
  C 494.75 545.55 512.02 506.29 522.37 465.35
  C 525.12 454.44 527.38 441.60 529.71 429.70
  Q 541.26 370.70 577.41 322.86
  Q 577.70 322.47 577.25 322.65
  C 558.25 330.14 543.65 345.47 532.89 362.41
  Q 522.77 378.34 519.53 385.02
  C 514.00 396.39 506.63 409.30 494.08 409.23
  C 484.02 409.17 476.61 400.55 471.55 391.95
  C 462.45 376.46 453.77 359.60 440.68 347.83
  Q 432.03 340.04 422.93 334.14
  A 1.57 1.56 -6.3 0 0 420.98 336.57
  C 450.20 365.12 466.67 408.69 470.51 448.59
  C 473.12 475.78 467.32 500.99 453.71 524.76
  C 445.27 539.52 432.03 553.47 420.13 565.72
  Q 419.56 566.30 420.14 566.87
  Z
  M 346.52 375.80
  A 17.49 17.49 0.0 0 0 329.03 358.31
  A 17.49 17.49 0.0 0 0 311.54 375.80
  A 17.49 17.49 0.0 0 0 329.03 393.29
  A 17.49 17.49 0.0 0 0 346.52 375.80
  Z
  M 510.26 375.79
  A 17.48 17.48 0.0 0 0 492.78 358.31
  A 17.48 17.48 0.0 0 0 475.30 375.79
  A 17.48 17.48 0.0 0 0 492.78 393.27
  A 17.48 17.48 0.0 0 0 510.26 375.79
  Z
  M 95.99 391.21
  A 0.25 0.25 0.0 0 1 95.95 390.71
  C 114.63 387.37 133.23 383.97 152.21 382.75
  Q 152.70 382.72 152.57 382.25
  C 149.55 370.85 132.83 366.71 122.76 367.10
  C 105.73 367.75 85.16 383.05 72.08 393.16
  A 0.22 0.22 0.0 0 0 72.12 393.53
  C 85.82 400.39 106.13 409.43 120.89 409.37
  C 133.12 409.31 150.98 402.36 153.26 388.24
  A 0.44 0.44 0.0 0 0 152.76 387.73
  Q 124.51 391.55 95.99 391.21
  Z
  M 714.83 390.88
  A 0.17 0.17 0.0 0 1 714.80 391.21
  Q 685.87 391.61 657.21 387.73
  Q 656.62 387.65 656.70 388.24
  C 658.49 402.32 676.70 409.18 688.78 409.36
  C 702.36 409.57 720.66 401.69 732.93 395.79
  C 733.91 395.31 736.03 394.65 737.38 393.75
  Q 737.91 393.39 737.41 393.00
  C 724.50 382.96 703.41 367.23 685.92 367.07
  C 676.39 366.98 660.27 370.87 657.29 382.12
  Q 657.15 382.67 657.71 382.72
  C 676.99 384.35 695.75 387.47 714.83 390.88
  Z
  M 162.73 429.78
  C 188.68 424.54 213.80 418.98 240.27 416.23
  Q 240.85 416.17 240.61 415.64
  C 232.30 397.10 206.98 393.84 189.90 398.40
  Q 182.55 400.37 171.72 406.54
  Q 151.26 418.18 133.33 433.65
  Q 132.93 433.99 133.41 434.22
  Q 147.85 441.04 162.98 446.00
  C 176.00 450.27 187.68 453.82 199.72 453.47
  C 216.01 452.99 239.42 442.18 241.63 423.59
  A 0.59 0.59 0.0 0 0 240.95 422.94
  C 214.95 427.50 188.89 428.84 162.66 430.14
  Q 162.54 430.15 162.51 430.06
  Q 162.49 430.01 162.50 429.96
  Q 162.53 429.82 162.73 429.78
  Z
  M 646.95 429.93
  Q 613.63 429.15 580.69 424.81
  Q 574.59 424.00 568.73 422.90
  A 0.42 0.42 0.0 0 0 568.23 423.36
  C 570.14 439.89 588.30 450.23 603.37 452.75
  C 611.32 454.08 621.20 453.28 629.00 451.26
  Q 653.63 444.89 676.60 434.18
  A 0.24 0.23 -36.4 0 0 676.66 433.79
  Q 659.10 418.77 639.20 407.16
  Q 628.41 400.87 621.13 398.74
  C 603.64 393.63 577.97 396.87 569.20 415.36
  A 0.68 0.68 0.0 0 0 569.76 416.33
  C 595.29 418.38 615.70 422.96 646.96 429.85
  A 0.04 0.04 0.0 0 1 646.95 429.93
  Z
  M 425.40 469.37
  C 419.41 475.14 409.93 477.87 402.31 473.68
  C 381.54 462.28 375.86 425.84 376.55 404.13
  Q 376.59 402.70 376.01 404.01
  C 371.42 414.32 367.76 426.35 365.75 436.88
  C 358.14 476.97 384.89 518.96 410.53 546.86
  Q 410.84 547.20 411.16 546.86
  C 432.46 523.46 454.56 490.63 457.26 458.24
  C 458.74 440.35 453.02 420.00 445.74 403.72
  Q 445.54 403.26 445.54 403.76
  C 445.83 425.34 441.60 453.79 425.40 469.37
  Z
  M 424.97 450.12
  A 14.19 14.19 0.0 0 0 410.78 435.93
  A 14.19 14.19 0.0 0 0 396.59 450.12
  A 14.19 14.19 0.0 0 0 410.78 464.31
  A 14.19 14.19 0.0 0 0 424.97 450.12
  Z
  M 361.33 623.80
  Q 334.95 650.17 313.30 680.35
  A 0.27 0.27 0.0 0 0 313.54 680.78
  Q 356.62 678.07 399.58 677.80
  C 401.41 677.79 402.33 676.93 402.92 675.35
  A 0.80 0.78 -54.0 0 0 402.81 674.60
  L 362.79 622.72
  Q 362.50 622.35 362.16 622.68
  C 361.78 623.04 361.58 623.54 361.33 623.80
  Z
  M 160.08 756.30
  C 330.10 736.48 499.52 736.94 663.22 756.55
  Q 664.12 756.66 663.36 756.17
  Q 662.50 755.63 661.65 755.04
  C 644.38 743.24 625.72 733.47 606.12 726.18
  C 535.91 700.07 460.19 692.53 386.99 694.67
  C 328.96 696.36 270.62 705.87 216.05 726.03
  Q 186.08 737.09 158.44 756.47
  Q 157.72 756.98 158.57 756.71
  C 159.16 756.53 159.53 756.36 160.08 756.30
  Z
  M 199.88 847.92
  C 191.44 842.52 176.38 845.83 166.45 847.53
  A 1.09 1.08 -3.2 0 1 165.18 846.40
  C 165.93 833.81 165.88 821.02 167.05 808.63
  C 167.34 805.62 168.49 803.17 171.75 803.20
  C 180.33 803.29 211.88 804.47 209.68 790.20
  C 208.81 784.57 199.27 782.17 194.50 782.21
  Q 180.76 782.30 168.61 784.66
  C 167.30 784.91 165.71 784.75 164.37 784.74
  Q 163.84 784.74 163.50 784.34
  C 157.91 777.75 144.24 777.97 138.49 784.66
  A 1.27 1.25 66.1 0 0 138.19 785.45
  Q 137.54 835.58 135.94 885.69
  Q 135.49 899.93 135.99 914.17
  C 136.08 916.67 136.78 920.68 138.00 922.73
  C 143.99 932.79 156.25 928.11 158.54 918.50
  Q 162.78 900.74 163.22 877.58
  C 163.28 874.69 163.77 872.08 164.39 869.39
  A 2.90 2.87 -88.1 0 1 166.71 867.20
  L 183.00 864.42
  Q 183.50 864.34 183.98 864.50
  Q 185.33 864.95 186.42 863.91
  A 1.49 1.45 -69.7 0 1 187.24 863.52
  C 191.70 863.01 198.83 862.58 201.85 859.31
  C 205.22 855.65 203.98 850.55 199.88 847.92
  Z
  M 651.72 871.29
  C 653.52 847.71 653.71 823.82 653.52 800.19
  Q 653.45 791.51 651.84 788.05
  C 649.15 782.28 642.56 779.27 636.04 780.42
  C 631.82 781.16 627.10 781.78 626.34 787.02
  C 625.67 791.59 625.28 795.87 625.28 800.76
  Q 625.30 823.85 624.24 846.93
  C 623.16 870.63 623.40 894.42 623.52 918.13
  C 623.60 932.97 642.80 933.43 645.98 919.61
  Q 646.09 919.11 646.51 918.80
  C 649.31 916.76 660.51 917.82 664.42 917.66
  C 675.95 917.19 691.32 912.93 696.63 901.61
  C 698.38 897.87 698.21 890.78 697.07 886.88
  C 694.02 876.49 680.08 871.31 670.24 871.07
  Q 660.19 870.81 652.14 871.69
  Q 651.69 871.74 651.72 871.29
  Z
  M 471.83 913.48
  C 471.97 926.06 484.66 926.32 493.75 926.64
  C 504.43 927.02 544.49 925.85 550.69 915.95
  Q 554.87 909.29 548.13 904.59
  Q 544.16 901.81 541.44 901.31
  C 528.49 898.90 514.45 900.75 500.48 900.79
  A 3.11 3.11 0.0 0 1 497.38 897.32
  C 497.98 892.29 498.64 886.85 498.96 881.85
  Q 501.61 839.52 501.25 797.10
  C 501.11 780.87 492.99 778.38 478.55 781.17
  C 474.64 781.92 474.55 787.69 474.48 790.25
  C 473.28 831.26 471.39 872.46 471.83 913.48
  Z
  M 447.56 836.06
  C 447.34 829.81 442.88 826.94 437.17 826.72
  C 433.22 826.57 428.61 828.23 427.31 832.06
  C 426.35 834.88 425.53 840.45 428.99 842.55
  C 434.93 846.16 447.92 846.45 447.56 836.06
  Z
  M 581.19 842.56
  Q 587.25 846.10 593.53 844.14
  C 596.46 843.22 598.57 842.42 599.25 839.34
  C 602.58 824.14 578.83 821.90 578.59 836.28
  C 578.54 839.44 578.37 840.92 581.19 842.56
  Z
  M 366.32 867.07
  Q 367.08 881.80 368.02 896.99
  C 368.59 906.12 369.87 916.80 379.44 920.55
  C 385.47 922.91 395.12 923.17 399.21 917.39
  C 401.42 914.27 399.71 909.65 396.04 907.37
  A 1.01 0.99 14.4 0 1 395.58 906.61
  C 395.16 902.32 394.24 898.05 394.07 893.80
  Q 393.38 875.97 389.79 857.74
  C 388.84 852.91 387.48 846.53 383.38 843.49
  C 372.75 835.60 359.23 841.22 351.16 849.92
  A 0.76 0.75 -30.4 0 1 349.87 849.59
  C 348.52 844.08 346.94 839.20 340.49 837.47
  C 333.64 835.64 326.60 839.19 320.77 843.06
  Q 320.24 843.41 320.14 842.79
  C 318.26 831.26 298.65 832.44 297.83 842.07
  C 296.29 860.15 296.96 878.54 297.02 896.69
  C 297.03 899.00 296.37 901.46 296.52 904.03
  Q 296.54 904.51 296.32 904.94
  C 294.12 909.11 292.65 913.93 297.72 916.50
  Q 308.66 922.07 317.43 915.37
  C 323.78 910.52 323.23 896.65 323.12 889.56
  C 322.97 879.68 321.92 868.79 320.46 858.70
  Q 320.38 858.14 320.80 857.76
  L 327.65 851.49
  A 1.08 1.07 63.7 0 1 329.43 852.10
  Q 331.52 863.75 333.64 874.92
  C 334.58 879.88 335.88 883.72 341.06 884.41
  C 356.06 886.42 359.72 878.30 364.78 866.79
  A 0.80 0.80 0.0 0 1 366.32 867.07
  Z
  M 245.37 882.57
  C 240.95 882.35 236.02 881.39 232.40 881.46
  C 222.93 881.64 207.56 887.81 205.55 898.60
  C 201.50 920.42 222.92 928.20 240.25 927.59
  Q 241.12 927.56 242.82 928.43
  A 1.24 1.23 -87.3 0 1 243.39 929.06
  C 246.38 936.55 252.36 937.00 258.95 939.39
  Q 259.37 939.54 259.82 939.44
  C 265.13 938.19 272.90 937.65 273.02 929.81
  A 1.06 1.06 0.0 0 0 272.79 929.15
  L 269.90 925.61
  A 0.89 0.86 -65.7 0 1 269.70 925.05
  C 269.83 908.29 271.81 891.22 272.63 874.44
  Q 272.82 870.54 271.85 863.04
  C 269.78 847.16 257.17 837.74 241.44 839.97
  C 236.13 840.72 215.80 843.76 216.25 849.98
  Q 216.29 850.49 216.71 850.79
  C 222.51 854.89 230.20 851.02 236.84 851.94
  Q 239.75 852.34 242.45 852.58
  A 3.32 3.32 0.0 0 1 245.31 854.91
  C 246.19 857.77 247.24 860.74 247.40 863.75
  Q 247.91 872.96 246.06 882.04
  Q 245.94 882.60 245.37 882.57
  Z
  M 450.56 903.56
  C 450.73 887.90 451.20 876.16 448.32 862.86
  Q 447.19 857.65 445.52 855.72
  C 441.14 850.67 432.36 852.65 430.24 859.19
  Q 429.04 862.87 428.71 865.24
  Q 425.63 887.37 425.20 900.24
  Q 424.85 910.74 421.11 919.17
  C 417.16 928.12 428.77 929.28 434.20 928.69
  C 448.02 927.19 450.44 915.26 450.56 903.56
  Z
  M 573.30 918.73
  C 570.07 925.60 576.12 928.72 581.88 928.92
  C 595.03 929.38 602.06 921.02 602.47 908.25
  C 602.86 896.24 603.40 881.49 601.38 868.64
  C 600.27 861.52 599.37 852.99 591.23 852.95
  C 583.41 852.92 581.37 859.35 580.58 865.80
  C 579.27 876.47 578.10 886.35 577.48 897.79
  C 577.07 905.45 576.42 912.06 573.30 918.73
  Z"
/>
<path fill="#95c343" d="
  M 341.50 39.50
  Q 341.45 39.50 341.40 39.52
  Q 341.30 39.55 341.31 39.66
  C 342.83 59.47 343.72 77.00 347.66 98.39
  Q 347.79 99.11 347.07 98.97
  Q 336.37 96.92 330.70 87.03
  C 323.94 75.26 323.28 65.36 326.59 51.60
  Q 330.71 34.48 338.23 18.45
  Q 338.42 18.05 338.71 18.38
  Q 353.94 35.65 362.41 52.57
  C 369.29 66.34 369.67 90.11 353.22 97.96
  A 0.45 0.45 0.0 0 1 352.58 97.60
  C 350.56 78.13 346.26 58.77 341.73 39.76
  Q 341.67 39.50 341.50 39.50
  Z"
/>
<path fill="#95c343" d="
  M 468.28 39.98
  A 0.11 0.11 0.0 0 0 468.06 39.95
  C 463.57 58.49 459.34 77.33 457.44 96.31
  Q 457.15 99.15 454.85 97.46
  Q 447.49 92.08 445.03 84.24
  C 440.41 69.51 443.77 57.11 451.78 44.33
  Q 460.41 30.56 471.11 18.33
  Q 471.44 17.96 471.65 18.41
  Q 479.82 36.23 484.20 55.20
  Q 487.50 69.50 481.59 82.76
  C 478.31 90.11 471.40 98.02 462.86 98.74
  Q 462.32 98.78 462.41 98.25
  Q 467.15 69.31 468.28 39.98
  Z"
/>
<path fill="#95c343" d="
  M 404.76 69.02
  C 402.39 92.76 400.66 116.71 402.00 140.43
  A 0.42 0.42 0.0 0 1 401.51 140.87
  C 392.29 139.20 385.86 130.34 382.80 122.16
  Q 375.59 102.88 383.92 82.18
  Q 392.40 61.09 404.67 42.12
  A 0.32 0.32 0.0 0 1 405.21 42.12
  Q 418.01 62.03 426.64 84.13
  Q 434.90 105.25 425.83 124.94
  C 422.76 131.59 416.15 139.93 408.53 140.70
  Q 408.01 140.76 408.02 140.23
  C 408.81 116.37 407.00 92.78 405.16 69.03
  A 0.20 0.20 0.0 0 0 404.76 69.02
  Z"
/>
<path fill="#95c343" d="
  M 266.67 86.74
  Q 275.39 114.18 287.95 140.05
  A 0.40 0.40 0.0 0 1 287.63 140.62
  Q 277.23 141.73 269.50 134.74
  C 256.58 123.05 254.86 110.17 254.97 92.54
  Q 255.05 79.12 257.17 65.79
  Q 257.25 65.27 257.70 65.55
  Q 273.29 75.41 286.18 88.37
  Q 294.16 96.40 297.09 102.92
  C 302.04 113.98 303.27 129.12 293.35 138.09
  Q 292.93 138.48 292.70 137.95
  Q 281.26 111.57 266.94 86.62
  A 0.15 0.15 0.0 0 0 266.67 86.74
  Z"
/>
<path fill="#95c343" d="
  M 543.18 86.67
  A 0.16 0.15 69.3 0 0 542.90 86.54
  C 533.51 103.27 524.50 119.90 517.39 138.05
  Q 517.19 138.53 516.79 138.20
  Q 510.82 133.33 509.75 126.70
  Q 506.40 105.91 521.37 90.36
  Q 534.17 77.06 552.27 65.54
  Q 552.69 65.27 552.76 65.76
  C 554.62 79.72 555.80 94.27 554.16 108.25
  C 552.39 123.37 540.02 142.70 522.37 140.66
  Q 521.75 140.59 522.02 140.03
  Q 534.30 114.03 543.18 86.67
  Z"
/>
<path fill="#95c343" d="
  M 339.39 140.10
  Q 339.12 140.96 339.63 141.87
  Q 339.85 142.27 339.86 142.72
  Q 340.51 170.89 345.30 198.63
  Q 345.41 199.27 344.75 199.24
  C 337.70 198.92 330.94 192.13 327.74 186.22
  C 316.03 164.59 327.56 138.72 336.29 118.67
  Q 336.53 118.13 336.92 118.58
  Q 352.09 136.06 360.41 153.04
  C 367.23 166.97 367.24 190.62 350.79 198.29
  Q 350.31 198.52 350.26 197.99
  C 348.33 178.50 344.30 159.15 339.83 140.11
  Q 339.63 139.28 339.39 140.10
  Z"
/>
<path fill="#95c343" d="
  M 470.06 142.24
  Q 470.16 139.31 469.51 142.17
  C 465.27 160.82 461.38 179.38 459.62 198.21
  A 0.34 0.34 0.0 0 1 459.13 198.48
  Q 449.55 193.52 446.63 183.04
  C 442.94 169.80 445.52 159.42 452.58 147.09
  Q 461.31 131.85 472.91 118.56
  Q 473.30 118.11 473.54 118.66
  Q 477.02 126.54 481.37 138.91
  C 488.34 158.76 491.90 179.18 474.97 194.96
  Q 471.16 198.51 465.09 199.26
  Q 464.56 199.32 464.64 198.79
  Q 469.08 170.68 470.06 142.24
  Z"
/>
<path fill="#95c343" d="
  M 153.09 138.19
  C 166.10 155.42 176.05 168.88 190.18 182.86
  Q 190.62 183.30 190.05 183.55
  Q 180.52 187.79 171.04 183.43
  C 153.35 175.29 148.29 162.30 143.09 143.90
  Q 139.97 132.87 138.22 121.46
  Q 138.13 120.86 138.71 121.02
  C 153.72 125.16 176.18 132.89 186.73 144.05
  C 195.04 152.85 201.56 168.03 194.53 179.56
  Q 194.21 180.09 193.81 179.62
  Q 174.80 157.59 153.24 138.05
  Q 152.41 137.29 153.09 138.19
  Z"
/>
<path fill="#95c343" d="
  M 656.54 138.08
  Q 634.97 157.47 616.18 179.56
  Q 615.81 179.99 615.47 179.54
  C 611.51 174.30 611.86 165.96 613.81 160.03
  C 618.69 145.23 627.69 138.37 642.28 131.66
  Q 656.39 125.18 671.40 120.95
  Q 671.82 120.84 671.75 121.26
  C 669.26 136.40 664.66 157.57 656.14 169.67
  C 648.98 179.86 632.70 189.95 619.96 183.38
  Q 619.54 183.17 619.87 182.83
  C 633.52 169.16 645.16 153.65 656.69 138.22
  Q 657.30 137.40 656.54 138.08
  Z"
/>
<path fill="#95c343" d="
  M 228.27 155.73
  Q 241.17 181.97 257.45 206.33
  Q 257.76 206.79 257.23 206.96
  C 242.08 211.93 226.80 195.91 222.01 183.40
  C 217.30 171.09 216.01 151.52 216.10 137.15
  A 0.35 0.35 0.0 0 1 216.59 136.83
  Q 230.81 143.46 243.79 152.25
  C 257.57 161.58 265.63 170.52 267.41 186.81
  Q 268.36 195.53 263.02 203.10
  Q 262.22 204.24 261.50 203.04
  Q 246.78 178.54 228.36 155.67
  A 0.06 0.05 -77.8 0 0 228.27 155.73
  Z"
/>
<path fill="#95c343" d="
  M 581.66 155.45
  Q 563.04 178.27 548.15 203.38
  A 0.56 0.56 0.0 0 1 547.24 203.44
  C 535.61 188.95 546.31 166.69 559.43 156.98
  Q 574.97 145.47 593.02 136.93
  Q 593.83 136.54 593.82 137.44
  C 593.66 154.12 592.52 180.53 581.82 194.19
  C 575.29 202.52 563.95 210.30 552.78 207.01
  Q 552.20 206.84 552.53 206.33
  Q 568.56 181.70 581.73 155.50
  A 0.04 0.04 0.0 0 0 581.66 155.45
  Z"
/>
<path fill="#95c343" d="
  M 404.84 202.30
  C 401.52 235.76 399.60 265.57 401.07 297.97
  Q 401.10 298.56 400.52 298.41
  C 385.33 294.57 375.92 278.98 372.89 264.91
  C 369.45 249.02 370.57 238.05 376.45 222.83
  Q 387.54 194.10 404.50 167.73
  Q 404.93 167.06 405.36 167.74
  Q 416.46 185.40 425.60 204.67
  C 432.10 218.40 438.50 233.71 438.69 248.17
  C 438.92 266.67 430.29 293.64 409.35 298.24
  Q 408.80 298.36 408.83 297.80
  C 409.53 285.45 409.48 273.34 409.00 261.09
  Q 407.86 231.64 405.06 202.30
  Q 404.95 201.19 404.84 202.30
  Z"
/>
<path fill="#95c343" d="
  M 305.43 229.01
  Q 303.53 225.18 304.73 229.28
  C 311.86 253.57 319.93 278.32 330.23 301.43
  A 1.01 1.00 78.4 0 1 329.30 302.85
  C 311.57 302.51 298.80 289.32 292.35 273.59
  C 288.30 263.70 287.88 251.95 288.34 241.00
  Q 289.20 220.36 293.09 199.95
  A 0.47 0.47 0.0 0 1 293.84 199.66
  C 307.73 210.17 321.83 221.53 333.25 234.81
  Q 340.31 243.02 343.56 249.96
  C 350.72 265.25 351.99 288.21 337.20 299.53
  Q 336.70 299.92 336.50 299.32
  C 328.09 275.05 316.60 251.52 305.43 229.01
  Z"
/>
<path fill="#95c343" d="
  M 505.39 227.21
  C 492.61 252.04 481.94 274.54 473.40 299.36
  A 0.56 0.55 -61.0 0 1 472.53 299.61
  C 455.30 285.79 460.01 257.91 471.00 241.51
  Q 474.17 236.79 482.85 227.77
  C 483.36 227.25 483.83 225.96 484.76 225.58
  Q 485.23 225.39 485.60 225.04
  Q 500.15 211.50 516.14 199.69
  Q 516.60 199.35 516.71 199.91
  Q 521.83 226.24 521.44 252.99
  Q 521.10 276.77 503.95 293.19
  C 497.34 299.51 489.05 303.60 479.83 302.57
  A 0.45 0.44 15.1 0 1 479.47 301.95
  C 489.92 277.65 498.31 252.72 505.61 227.30
  Q 505.94 226.13 505.39 227.21
  Z"
/>
<path fill="#95c343" d="
  M 204.67 233.95
  A 0.14 0.14 0.0 0 0 204.45 234.12
  C 218.26 256.92 231.49 278.71 248.82 300.23
  Q 249.15 300.64 248.68 300.87
  C 238.18 305.96 223.47 299.84 215.13 293.13
  C 202.38 282.89 197.21 270.60 193.60 254.72
  Q 188.64 232.88 187.25 210.57
  A 0.35 0.34 9.2 0 1 187.73 210.23
  Q 206.03 217.67 223.33 227.15
  C 235.01 233.55 247.35 242.72 253.79 254.11
  C 260.88 266.65 264.42 283.98 254.96 296.25
  A 0.59 0.58 -43.0 0 1 254.01 296.22
  C 239.28 274.21 222.15 253.71 204.67 233.95
  Z"
/>
<path fill="#95c343" d="
  M 604.95 234.44
  Q 578.28 263.64 555.78 296.11
  Q 555.46 296.57 555.07 296.17
  C 549.20 290.22 548.42 279.91 549.88 272.02
  C 553.72 251.31 564.76 240.23 582.27 229.73
  Q 601.38 218.28 622.26 210.34
  A 0.27 0.27 0.0 0 1 622.63 210.61
  Q 621.21 230.67 617.17 250.43
  C 612.63 272.54 604.63 290.83 582.43 300.06
  C 576.36 302.58 567.42 304.30 561.39 300.88
  Q 560.90 300.61 561.25 300.17
  C 577.49 279.99 592.19 256.12 605.08 234.53
  A 0.08 0.08 0.0 0 0 604.95 234.44
  Z"
/>
<path fill="#95c343" d="
  M 120.12 247.37
  C 133.65 256.49 149.39 267.26 165.14 274.97
  A 0.66 0.66 0.0 0 1 165.27 276.07
  C 150.32 288.45 128.08 278.64 117.49 265.52
  Q 105.46 250.59 96.52 233.63
  Q 96.23 233.09 96.84 233.05
  C 111.77 232.07 136.25 232.03 150.11 239.61
  C 161.09 245.63 170.10 256.02 168.84 269.71
  Q 168.68 271.43 167.22 270.50
  C 152.59 261.17 136.53 253.77 120.79 246.21
  Q 112.55 242.25 120.12 247.37
  Z"
/>
<path fill="#95c343" d="
  M 693.57 244.34
  Q 666.92 255.69 642.16 270.69
  Q 641.66 270.99 641.48 270.43
  C 637.85 258.47 648.63 246.47 657.90 240.61
  C 671.57 231.96 697.76 232.09 713.00 233.05
  Q 713.61 233.09 713.33 233.63
  Q 705.63 248.37 695.53 261.38
  C 686.89 272.51 678.86 279.12 665.51 281.36
  C 658.73 282.51 649.23 281.15 644.53 275.68
  Q 644.15 275.23 644.67 274.97
  C 661.77 266.49 677.99 255.43 693.70 244.58
  A 0.14 0.14 0.0 0 0 693.57 244.34
  Z"
/>
<path fill="#95c343" d="
  M 771.17 315.22
  C 748.47 318.71 732.66 322.72 714.48 328.58
  A 0.49 0.48 80.7 0 1 713.85 328.12
  C 713.76 314.71 727.90 305.27 739.19 302.38
  Q 745.91 300.65 756.45 301.69
  Q 774.51 303.48 792.26 309.19
  Q 792.95 309.42 792.47 309.96
  C 782.41 321.23 766.20 337.17 752.55 342.23
  C 740.81 346.59 723.41 345.51 715.58 333.98
  A 0.51 0.51 0.0 0 1 715.89 333.20
  C 734.81 329.05 753.06 322.08 771.25 315.54
  A 0.17 0.17 0.0 0 0 771.17 315.22
  Z"
/>
<path fill="#95c343" d="
  M 38.96 315.55
  C 56.84 322.28 75.26 329.25 94.01 333.15
  Q 94.51 333.26 94.27 333.72
  C 86.39 348.57 61.02 346.13 49.32 338.14
  Q 31.50 325.99 17.34 309.75
  Q 16.99 309.35 17.49 309.19
  Q 36.33 303.17 55.93 301.30
  Q 70.98 299.87 83.41 308.05
  C 89.99 312.39 96.04 319.77 95.93 328.03
  Q 95.92 328.62 95.36 328.45
  Q 67.66 319.94 39.03 315.31
  Q 37.79 315.11 38.96 315.55
  Z"
/>
<path fill="#95c343" d="
  M 142.01 323.53
  C 165.75 332.46 191.93 341.41 217.31 346.68
  Q 217.95 346.82 217.61 347.37
  C 204.67 368.16 172.72 364.44 155.23 353.01
  C 139.81 342.94 125.61 329.34 113.08 315.90
  A 0.42 0.41 60.2 0 1 113.26 315.22
  C 130.37 310.00 148.42 305.54 166.31 304.35
  Q 177.26 303.62 185.01 305.54
  C 201.14 309.55 218.52 321.72 219.58 339.68
  A 0.60 0.60 0.0 0 1 218.80 340.29
  C 193.95 332.50 167.76 327.34 142.07 323.29
  Q 140.89 323.11 142.01 323.53
  Z"
/>
<path fill="#95c343" d="
  M 666.48 323.60
  Q 628.08 329.38 590.81 340.20
  A 0.41 0.41 0.0 0 1 590.29 339.79
  C 590.91 318.77 614.62 306.07 633.33 304.05
  Q 637.55 303.59 651.25 305.01
  Q 670.71 307.02 696.53 315.44
  Q 696.98 315.59 696.66 315.93
  Q 679.87 334.25 660.17 349.13
  C 645.93 359.89 630.68 364.60 613.02 361.02
  Q 599.03 358.19 592.29 347.52
  A 0.57 0.57 0.0 0 1 592.65 346.66
  C 616.88 341.26 639.64 333.86 662.71 325.51
  Q 664.69 324.79 666.55 323.84
  Q 667.27 323.48 666.48 323.60
  Z"
/>
<path fill="#7f6857" d="
  M 420.61 677.26
  Q 382.68 629.77 358.82 595.69
  C 331.75 557.04 310.09 508.50 298.60 461.93
  C 295.96 451.25 293.79 437.92 291.31 425.93
  Q 279.55 368.98 244.32 322.88
  Q 244.01 322.48 244.48 322.66
  C 271.01 332.94 288.17 358.07 300.79 382.37
  C 306.14 392.67 313.78 409.11 327.27 409.27
  C 340.87 409.44 349.30 394.25 355.08 383.94
  Q 363.12 369.60 368.43 361.93
  C 378.02 348.10 392.50 337.45 408.66 329.22
  Q 408.94 329.08 408.81 329.37
  Q 408.76 329.49 408.71 329.61
  Q 408.68 329.67 408.62 329.70
  Q 407.57 330.19 406.70 330.96
  C 375.59 358.35 356.04 403.81 351.49 444.66
  Q 346.15 492.62 372.80 532.19
  Q 375.59 536.34 384.94 547.56
  Q 394.12 558.57 416.40 580.10
  C 452.24 614.75 481.39 642.53 508.36 680.40
  Q 508.65 680.81 508.15 680.78
  Q 470.51 678.32 432.75 677.97
  Q 427.07 677.91 421.40 677.66
  Q 420.91 677.64 420.61 677.26
  Z"
/>
<path fill="#7f6857" d="
  M 420.14 566.87
  Q 419.56 566.30 420.13 565.72
  C 432.03 553.47 445.27 539.52 453.71 524.76
  C 467.32 500.99 473.12 475.78 470.51 448.59
  C 466.67 408.69 450.20 365.12 420.98 336.57
  A 1.57 1.56 -6.3 0 1 422.93 334.14
  Q 432.03 340.04 440.68 347.83
  C 453.77 359.60 462.45 376.46 471.55 391.95
  C 476.61 400.55 484.02 409.17 494.08 409.23
  C 506.63 409.30 514.00 396.39 519.53 385.02
  Q 522.77 378.34 532.89 362.41
  C 543.65 345.47 558.25 330.14 577.25 322.65
  Q 577.70 322.47 577.41 322.86
  Q 541.26 370.70 529.71 429.70
  C 527.38 441.60 525.12 454.44 522.37 465.35
  C 512.02 506.29 494.75 545.55 472.15 581.22
  Q 465.19 592.21 458.01 603.06
  Q 457.74 603.46 457.39 603.12
  L 420.14 566.87
  Z"
/>
<circle fill="#7f6857" cx="329.03" cy="375.80" r="17.49"/>
<circle fill="#7f6857" cx="492.78" cy="375.79" r="17.48"/>
<path fill="#95c343" d="
  M 95.99 391.21
  Q 124.51 391.55 152.76 387.73
  A 0.44 0.44 0.0 0 1 153.26 388.24
  C 150.98 402.36 133.12 409.31 120.89 409.37
  C 106.13 409.43 85.82 400.39 72.12 393.53
  A 0.22 0.22 0.0 0 1 72.08 393.16
  C 85.16 383.05 105.73 367.75 122.76 367.10
  C 132.83 366.71 149.55 370.85 152.57 382.25
  Q 152.70 382.72 152.21 382.75
  C 133.23 383.97 114.63 387.37 95.95 390.71
  A 0.25 0.25 0.0 0 0 95.99 391.21
  Z"
/>
<path fill="#95c343" d="
  M 714.83 390.88
  C 695.75 387.47 676.99 384.35 657.71 382.72
  Q 657.15 382.67 657.29 382.12
  C 660.27 370.87 676.39 366.98 685.92 367.07
  C 703.41 367.23 724.50 382.96 737.41 393.00
  Q 737.91 393.39 737.38 393.75
  C 736.03 394.65 733.91 395.31 732.93 395.79
  C 720.66 401.69 702.36 409.57 688.78 409.36
  C 676.70 409.18 658.49 402.32 656.70 388.24
  Q 656.62 387.65 657.21 387.73
  Q 685.87 391.61 714.80 391.21
  A 0.17 0.17 0.0 0 0 714.83 390.88
  Z"
/>
<path fill="#95c343" d="
  M 162.50 429.96
  Q 162.49 430.01 162.51 430.06
  Q 162.54 430.15 162.66 430.14
  C 188.89 428.84 214.95 427.50 240.95 422.94
  A 0.59 0.59 0.0 0 1 241.63 423.59
  C 239.42 442.18 216.01 452.99 199.72 453.47
  C 187.68 453.82 176.00 450.27 162.98 446.00
  Q 147.85 441.04 133.41 434.22
  Q 132.93 433.99 133.33 433.65
  Q 151.26 418.18 171.72 406.54
  Q 182.55 400.37 189.90 398.40
  C 206.98 393.84 232.30 397.10 240.61 415.64
  Q 240.85 416.17 240.27 416.23
  C 213.80 418.98 188.68 424.54 162.73 429.78
  Q 162.53 429.82 162.50 429.96
  Z"
/>
<path fill="#95c343" d="
  M 646.96 429.85
  C 615.70 422.96 595.29 418.38 569.76 416.33
  A 0.68 0.68 0.0 0 1 569.20 415.36
  C 577.97 396.87 603.64 393.63 621.13 398.74
  Q 628.41 400.87 639.20 407.16
  Q 659.10 418.77 676.66 433.79
  A 0.24 0.23 -36.4 0 1 676.60 434.18
  Q 653.63 444.89 629.00 451.26
  C 621.20 453.28 611.32 454.08 603.37 452.75
  C 588.30 450.23 570.14 439.89 568.23 423.36
  A 0.42 0.42 0.0 0 1 568.73 422.90
  Q 574.59 424.00 580.69 424.81
  Q 613.63 429.15 646.95 429.93
  A 0.04 0.04 0.0 0 0 646.96 429.85
  Z"
/>
<path fill="#7f6857" d="
  M 402.31 473.68
  C 409.93 477.87 419.41 475.14 425.40 469.37
  C 441.60 453.79 445.83 425.34 445.54 403.76
  Q 445.54 403.26 445.74 403.72
  C 453.02 420.00 458.74 440.35 457.26 458.24
  C 454.56 490.63 432.46 523.46 411.16 546.86
  Q 410.84 547.20 410.53 546.86
  C 384.89 518.96 358.14 476.97 365.75 436.88
  C 367.76 426.35 371.42 414.32 376.01 404.01
  Q 376.59 402.70 376.55 404.13
  C 375.86 425.84 381.54 462.28 402.31 473.68
  Z"
/>
<circle fill="#7f6857" cx="410.78" cy="450.12" r="14.19"/>
<path fill="#7f6857" d="
  M 361.33 623.80
  C 361.58 623.54 361.78 623.04 362.16 622.68
  Q 362.50 622.35 362.79 622.72
  L 402.81 674.60
  A 0.80 0.78 -54.0 0 1 402.92 675.35
  C 402.33 676.93 401.41 677.79 399.58 677.80
  Q 356.62 678.07 313.54 680.78
  A 0.27 0.27 0.0 0 1 313.30 680.35
  Q 334.95 650.17 361.33 623.80
  Z"
/>
<path fill="#95c343" d="
  M 663.22 756.55
  C 499.52 736.94 330.10 736.48 160.08 756.30
  C 159.53 756.36 159.16 756.53 158.57 756.71
  Q 157.72 756.98 158.44 756.47
  Q 186.08 737.09 216.05 726.03
  C 270.62 705.87 328.96 696.36 386.99 694.67
  C 460.19 692.53 535.91 700.07 606.12 726.18
  C 625.72 733.47 644.38 743.24 661.65 755.04
  Q 662.50 755.63 663.36 756.17
  Q 664.12 756.66 663.22 756.55
  Z"
/>
<path fill="#95c343" d="
  M 166.45 847.53
  C 176.38 845.83 191.44 842.52 199.88 847.92
  C 203.98 850.55 205.22 855.65 201.85 859.31
  C 198.83 862.58 191.70 863.01 187.24 863.52
  A 1.49 1.45 -69.7 0 0 186.42 863.91
  Q 185.33 864.95 183.98 864.50
  Q 183.50 864.34 183.00 864.42
  L 166.71 867.20
  A 2.90 2.87 -88.1 0 0 164.39 869.39
  C 163.77 872.08 163.28 874.69 163.22 877.58
  Q 162.78 900.74 158.54 918.50
  C 156.25 928.11 143.99 932.79 138.00 922.73
  C 136.78 920.68 136.08 916.67 135.99 914.17
  Q 135.49 899.93 135.94 885.69
  Q 137.54 835.58 138.19 785.45
  A 1.27 1.25 66.1 0 1 138.49 784.66
  C 144.24 777.97 157.91 777.75 163.50 784.34
  Q 163.84 784.74 164.37 784.74
  C 165.71 784.75 167.30 784.91 168.61 784.66
  Q 180.76 782.30 194.50 782.21
  C 199.27 782.17 208.81 784.57 209.68 790.20
  C 211.88 804.47 180.33 803.29 171.75 803.20
  C 168.49 803.17 167.34 805.62 167.05 808.63
  C 165.88 821.02 165.93 833.81 165.18 846.40
  A 1.09 1.08 -3.2 0 0 166.45 847.53
  Z"
/>
<path fill="#95c343" d="
  M 652.14 871.69
  Q 660.19 870.81 670.24 871.07
  C 680.08 871.31 694.02 876.49 697.07 886.88
  C 698.21 890.78 698.38 897.87 696.63 901.61
  C 691.32 912.93 675.95 917.19 664.42 917.66
  C 660.51 917.82 649.31 916.76 646.51 918.80
  Q 646.09 919.11 645.98 919.61
  C 642.80 933.43 623.60 932.97 623.52 918.13
  C 623.40 894.42 623.16 870.63 624.24 846.93
  Q 625.30 823.85 625.28 800.76
  C 625.28 795.87 625.67 791.59 626.34 787.02
  C 627.10 781.78 631.82 781.16 636.04 780.42
  C 642.56 779.27 649.15 782.28 651.84 788.05
  Q 653.45 791.51 653.52 800.19
  C 653.71 823.82 653.52 847.71 651.72 871.29
  Q 651.69 871.74 652.14 871.69
  Z
  M 649.66 906.95
  C 686.05 911.88 677.16 871.00 651.41 879.67
  A 1.18 1.17 -7.4 0 0 650.60 880.71
  L 648.78 905.87
  A 1.02 1.01 6.0 0 0 649.66 906.95
  Z"
/>
<path fill="#95c343" d="
  M 493.75 926.64
  C 484.66 926.32 471.97 926.06 471.83 913.48
  C 471.39 872.46 473.28 831.26 474.48 790.25
  C 474.55 787.69 474.64 781.92 478.55 781.17
  C 492.99 778.38 501.11 780.87 501.25 797.10
  Q 501.61 839.52 498.96 881.85
  C 498.64 886.85 497.98 892.29 497.38 897.32
  A 3.11 3.11 0.0 0 0 500.48 900.79
  C 514.45 900.75 528.49 898.90 541.44 901.31
  Q 544.16 901.81 548.13 904.59
  Q 554.87 909.29 550.69 915.95
  C 544.49 925.85 504.43 927.02 493.75 926.64
  Z"
/>
<path fill="#95c343" d="
  M 447.56 836.06
  C 447.92 846.45 434.93 846.16 428.99 842.55
  C 425.53 840.45 426.35 834.88 427.31 832.06
  C 428.61 828.23 433.22 826.57 437.17 826.72
  C 442.88 826.94 447.34 829.81 447.56 836.06
  Z"
/>
<path fill="#95c343" d="
  M 581.19 842.56
  C 578.37 840.92 578.54 839.44 578.59 836.28
  C 578.83 821.90 602.58 824.14 599.25 839.34
  C 598.57 842.42 596.46 843.22 593.53 844.14
  Q 587.25 846.10 581.19 842.56
  Z"
/>
<path fill="#95c343" d="
  M 366.32 867.07
  A 0.80 0.80 0.0 0 0 364.78 866.79
  C 359.72 878.30 356.06 886.42 341.06 884.41
  C 335.88 883.72 334.58 879.88 333.64 874.92
  Q 331.52 863.75 329.43 852.10
  A 1.08 1.07 63.7 0 0 327.65 851.49
  L 320.80 857.76
  Q 320.38 858.14 320.46 858.70
  C 321.92 868.79 322.97 879.68 323.12 889.56
  C 323.23 896.65 323.78 910.52 317.43 915.37
  Q 308.66 922.07 297.72 916.50
  C 292.65 913.93 294.12 909.11 296.32 904.94
  Q 296.54 904.51 296.52 904.03
  C 296.37 901.46 297.03 899.00 297.02 896.69
  C 296.96 878.54 296.29 860.15 297.83 842.07
  C 298.65 832.44 318.26 831.26 320.14 842.79
  Q 320.24 843.41 320.77 843.06
  C 326.60 839.19 333.64 835.64 340.49 837.47
  C 346.94 839.20 348.52 844.08 349.87 849.59
  A 0.76 0.75 -30.4 0 0 351.16 849.92
  C 359.23 841.22 372.75 835.60 383.38 843.49
  C 387.48 846.53 388.84 852.91 389.79 857.74
  Q 393.38 875.97 394.07 893.80
  C 394.24 898.05 395.16 902.32 395.58 906.61
  A 1.01 0.99 14.4 0 0 396.04 907.37
  C 399.71 909.65 401.42 914.27 399.21 917.39
  C 395.12 923.17 385.47 922.91 379.44 920.55
  C 369.87 916.80 368.59 906.12 368.02 896.99
  Q 367.08 881.80 366.32 867.07
  Z"
/>
<path fill="#95c343" d="
  M 246.06 882.04
  Q 247.91 872.96 247.40 863.75
  C 247.24 860.74 246.19 857.77 245.31 854.91
  A 3.32 3.32 0.0 0 0 242.45 852.58
  Q 239.75 852.34 236.84 851.94
  C 230.20 851.02 222.51 854.89 216.71 850.79
  Q 216.29 850.49 216.25 849.98
  C 215.80 843.76 236.13 840.72 241.44 839.97
  C 257.17 837.74 269.78 847.16 271.85 863.04
  Q 272.82 870.54 272.63 874.44
  C 271.81 891.22 269.83 908.29 269.70 925.05
  A 0.89 0.86 -65.7 0 0 269.90 925.61
  L 272.79 929.15
  A 1.06 1.06 0.0 0 1 273.02 929.81
  C 272.90 937.65 265.13 938.19 259.82 939.44
  Q 259.37 939.54 258.95 939.39
  C 252.36 937.00 246.38 936.55 243.39 929.06
  A 1.24 1.23 -87.3 0 0 242.82 928.43
  Q 241.12 927.56 240.25 927.59
  C 222.92 928.20 201.50 920.42 205.55 898.60
  C 207.56 887.81 222.93 881.64 232.40 881.46
  C 236.02 881.39 240.95 882.35 245.37 882.57
  Q 245.94 882.60 246.06 882.04
  Z
  M 243.30 914.32
  L 245.46 892.27
  A 1.66 1.66 0.0 0 0 243.97 890.46
  L 240.11 890.08
  A 12.58 12.44 -84.4 0 0 226.50 901.38
  L 226.47 901.70
  A 12.58 12.44 -84.4 0 0 237.62 915.44
  L 241.48 915.81
  A 1.66 1.66 0.0 0 0 243.30 914.32
  Z"
/>
<path fill="#95c343" d="
  M 450.56 903.56
  C 450.44 915.26 448.02 927.19 434.20 928.69
  C 428.77 929.28 417.16 928.12 421.11 919.17
  Q 424.85 910.74 425.20 900.24
  Q 425.63 887.37 428.71 865.24
  Q 429.04 862.87 430.24 859.19
  C 432.36 852.65 441.14 850.67 445.52 855.72
  Q 447.19 857.65 448.32 862.86
  C 451.20 876.16 450.73 887.90 450.56 903.56
  Z"
/>
<path fill="#95c343" d="
  M 581.88 928.92
  C 576.12 928.72 570.07 925.60 573.30 918.73
  C 576.42 912.06 577.07 905.45 577.48 897.79
  C 578.10 886.35 579.27 876.47 580.58 865.80
  C 581.37 859.35 583.41 852.92 591.23 852.95
  C 599.37 852.99 600.27 861.52 601.38 868.64
  C 603.40 881.49 602.86 896.24 602.47 908.25
  C 602.06 921.02 595.03 929.38 581.88 928.92
  Z"
/>
<path fill="#ffffff" d="
  M 649.66 906.95
  A 1.02 1.01 6.0 0 1 648.78 905.87
  L 650.60 880.71
  A 1.18 1.17 -7.4 0 1 651.41 879.67
  C 677.16 871.00 686.05 911.88 649.66 906.95
  Z"
/>
<path fill="#ffffff" d="
  M 243.30 914.32
  A 1.66 1.66 0.0 0 1 241.48 915.81
  L 237.62 915.44
  A 12.58 12.44 -84.4 0 1 226.47 901.70
  L 226.50 901.38
  A 12.58 12.44 -84.4 0 1 240.11 890.08
  L 243.97 890.46
  A 1.66 1.66 0.0 0 1 245.46 892.27
  L 243.30 914.32
  Z"
/>
</svg>
