<?xml version="1.0" encoding="utf-8" ?><svg xmlns="http://www.w3.org/2000/svg" xmlns:xlink="http://www.w3.org/1999/xlink" width="2000" height="2000" viewBox="0 0 2000 2000"><path fill="#4E4EF2" d="M1686.61 393.866C1687.77 393.705 1688.94 393.547 1690.11 393.471C1693.37 393.257 1696.35 394.188 1698.74 396.509C1725.56 422.63 1785.31 699.979 1793.36 752.956C1795.23 765.263 1795.91 777.232 1795.88 789.645C1760.69 792.867 1709.07 789.441 1672.61 787.493C1598.91 783.035 1525.26 777.908 1451.66 772.114C1409.6 769.012 1357.02 764.197 1315.51 764.838C1316.49 796.49 1324.99 841.601 1329.4 873.969C1340.05 952.141 1354.18 1028.97 1361.16 1107.68C1337.22 1107.27 1308.75 1108.61 1283.89 1108.61C1238.69 1108.16 1193.48 1108.45 1148.28 1109.46C1131.17 1109.99 1096.95 1110.61 1081.44 1115.73C1082.3 1132.64 1093.18 1165.18 1098.62 1182.23C1111.63 1223.02 1123.69 1257.89 1133.01 1299.9C1123.99 1312.08 1107.96 1327.68 1096.8 1338.27C1030.52 1401.14 961.773 1461.45 893.291 1521.88L841.74 1567.47C822.811 1584.35 788.007 1623.82 761.843 1598.79C742.879 1580.64 724.874 1560.21 707.052 1540.84L614.695 1440.56L321.516 1122.68C287.214 1087.68 254.812 1049.27 220.724 1013.89C212.388 1005.24 204.867 996.003 205.045 983.453C205.211 971.786 209.327 964.427 217.508 956.353C270.988 906.257 355.651 909.235 413.144 950.917C439.803 970.062 458.509 991.677 480.495 1015.14L539.919 1078.28L699.693 1247.63C737.288 1287.65 774.524 1328.43 813.242 1367.31C821.92 1355 833.412 1343.02 842.932 1331.32C869.201 1299.04 902.958 1262.65 922.659 1226.5C922.39 1220.07 922.016 1213.79 920.757 1207.46C910.026 1153.49 892.721 1101.06 880.607 1047.41C877.433 1033.35 875.25 1021.66 875.176 1007.24C891.093 997.273 921.337 989.971 940.162 985.509C996.178 972.231 1053.14 962.409 1109.25 949.444C1117.75 947.48 1126.11 944.452 1134.28 941.419C1126.08 906.213 1113.38 869.412 1102.24 834.82L1057.64 694.238C1049.09 666.813 1031.02 613.045 1030.08 586.066C1050.29 574.092 1084.03 562.775 1106.71 555.17C1145.96 542.368 1185.37 530.053 1224.93 518.229C1318 490.334 1411.49 463.842 1505.36 438.761C1561.77 423.585 1630.19 404.282 1686.61 393.866Z"/></svg>